<svg id="visual" viewBox="0 0 900 600" width="900" height="600" xmlns="http://www.w3.org/2000/svg" xmlns:xlink="http://www.w3.org/1999/xlink" version="1.1"><rect x="0" y="0" width="900" height="600" fill="#3c2a21"></rect><path d="M0 411L13.7 411.7C27.3 412.3 54.7 413.7 82 403.3C109.3 393 136.7 371 163.8 367.5C191 364 218 379 245.2 381.3C272.3 383.7 299.7 373.3 327 378C354.3 382.7 381.7 402.3 409 410.3C436.3 418.3 463.7 414.7 491 407.8C518.3 401 545.7 391 573 377C600.3 363 627.7 345 654.8 340.3C682 335.7 709 344.3 736.2 340.7C763.3 337 790.7 321 818 327.3C845.3 333.7 872.7 362.3 886.3 376.7L900 391L900 601L886.3 601C872.7 601 845.3 601 818 601C790.7 601 763.3 601 736.2 601C709 601 682 601 654.8 601C627.7 601 600.3 601 573 601C545.7 601 518.3 601 491 601C463.7 601 436.3 601 409 601C381.7 601 354.3 601 327 601C299.7 601 272.3 601 245.2 601C218 601 191 601 163.8 601C136.7 601 109.3 601 82 601C54.7 601 27.3 601 13.7 601L0 601Z" fill="#eae7d9" stroke-linecap="round" stroke-linejoin="miter"></path></svg>