<svg id="visual" viewBox="0 0 900 600" width="900" height="600" xmlns="http://www.w3.org/2000/svg" xmlns:xlink="http://www.w3.org/1999/xlink" version="1.1"><rect x="0" y="0" width="900" height="600" fill="#eae7d9"></rect><defs><linearGradient id="grad1_0" x1="33.3%" y1="0%" x2="100%" y2="100%"><stop offset="20%" stop-color="#3c2a21" stop-opacity="1"></stop><stop offset="80%" stop-color="#3c2a21" stop-opacity="1"></stop></linearGradient></defs><defs><linearGradient id="grad1_1" x1="33.3%" y1="0%" x2="100%" y2="100%"><stop offset="20%" stop-color="#3c2a21" stop-opacity="1"></stop><stop offset="80%" stop-color="#eae7d9" stop-opacity="1"></stop></linearGradient></defs><defs><linearGradient id="grad2_0" x1="0%" y1="0%" x2="66.7%" y2="100%"><stop offset="20%" stop-color="#3c2a21" stop-opacity="1"></stop><stop offset="80%" stop-color="#3c2a21" stop-opacity="1"></stop></linearGradient></defs><defs><linearGradient id="grad2_1" x1="0%" y1="0%" x2="66.7%" y2="100%"><stop offset="20%" stop-color="#eae7d9" stop-opacity="1"></stop><stop offset="80%" stop-color="#3c2a21" stop-opacity="1"></stop></linearGradient></defs><g transform="translate(900, 0)"><path d="M0 486.7C-44.1 480.1 -88.2 473.5 -119.8 447.2C-151.5 420.9 -170.8 375 -205.5 355.9C-240.2 336.9 -290.4 344.7 -330.9 330.9C-371.5 317.2 -402.4 281.8 -421.5 243.4C-440.7 205 -448 163.5 -456.9 122.4C-465.8 81.4 -476.3 40.7 -486.7 0L0 0Z" fill="#8e8275"></path><path d="M0 243.4C-22 240.1 -44.1 236.8 -59.9 223.6C-75.8 210.5 -85.4 187.5 -102.7 178C-120.1 168.4 -145.2 172.3 -165.5 165.5C-185.7 158.6 -201.2 140.9 -210.8 121.7C-220.3 102.5 -224 81.7 -228.4 61.2C-232.9 40.7 -238.1 20.3 -243.4 0L0 0Z" fill="#3c2a21"></path></g><g transform="translate(0, 600)"><path d="M0 -486.7C34.1 -454.1 68.3 -421.5 111.8 -417.3C155.4 -413 208.3 -437.2 243.4 -421.5C278.4 -405.9 295.6 -350.4 304.8 -304.8C313.9 -259.1 315.1 -223.2 338.6 -195.5C362.2 -167.8 408.2 -148.2 436.6 -117C465 -85.8 475.9 -42.9 486.7 0L0 0Z" fill="#8e8275"></path><path d="M0 -243.4C17.1 -227.1 34.1 -210.8 55.9 -208.6C77.7 -206.5 104.2 -218.6 121.7 -210.8C139.2 -202.9 147.8 -175.2 152.4 -152.4C157 -129.5 157.5 -111.6 169.3 -97.8C181.1 -83.9 204.1 -74.1 218.3 -58.5C232.5 -42.9 237.9 -21.4 243.4 0L0 0Z" fill="#3c2a21"></path></g></svg>