<svg id="visual" viewBox="0 0 900 600" width="900" height="600" xmlns="http://www.w3.org/2000/svg" xmlns:xlink="http://www.w3.org/1999/xlink" version="1.1"><rect x="0" y="0" width="900" height="600" fill="#eae7d9"></rect><path d="M0 273L21.5 276.5C43 280 86 287 128.8 269.2C171.7 251.3 214.3 208.7 257.2 194.2C300 179.7 343 193.3 385.8 210.2C428.7 227 471.3 247 514.2 242.3C557 237.7 600 208.3 642.8 202.3C685.7 196.3 728.3 213.7 771.2 227C814 240.3 857 249.7 878.5 254.3L900 259L900 601L878.5 601C857 601 814 601 771.2 601C728.3 601 685.7 601 642.8 601C600 601 557 601 514.2 601C471.3 601 428.7 601 385.8 601C343 601 300 601 257.2 601C214.3 601 171.7 601 128.8 601C86 601 43 601 21.5 601L0 601Z" fill="#3c2a21"></path><path d="M0 319L21.5 309.5C43 300 86 281 128.8 286.8C171.7 292.7 214.3 323.3 257.2 334.3C300 345.3 343 336.7 385.8 337.5C428.7 338.3 471.3 348.7 514.2 342.7C557 336.7 600 314.3 642.8 310.2C685.7 306 728.3 320 771.2 332C814 344 857 354 878.5 359L900 364L900 601L878.5 601C857 601 814 601 771.2 601C728.3 601 685.7 601 642.8 601C600 601 557 601 514.2 601C471.3 601 428.7 601 385.8 601C343 601 300 601 257.2 601C214.3 601 171.7 601 128.8 601C86 601 43 601 21.5 601L0 601Z" fill="#33241c"></path><path d="M0 415L21.5 413.3C43 411.7 86 408.3 128.8 404C171.7 399.7 214.3 394.3 257.2 381.8C300 369.3 343 349.7 385.8 343.8C428.7 338 471.3 346 514.2 355.7C557 365.3 600 376.7 642.8 373.5C685.7 370.3 728.3 352.7 771.2 345.5C814 338.3 857 341.7 878.5 343.3L900 345L900 601L878.5 601C857 601 814 601 771.2 601C728.3 601 685.7 601 642.8 601C600 601 557 601 514.2 601C471.3 601 428.7 601 385.8 601C343 601 300 601 257.2 601C214.3 601 171.7 601 128.8 601C86 601 43 601 21.5 601L0 601Z" fill="#2a1e17"></path><path d="M0 441L21.5 441C43 441 86 441 128.8 439.2C171.7 437.3 214.3 433.7 257.2 436.8C300 440 343 450 385.8 445C428.7 440 471.3 420 514.2 410C557 400 600 400 642.8 406.5C685.7 413 728.3 426 771.2 441.2C814 456.3 857 473.7 878.5 482.3L900 491L900 601L878.5 601C857 601 814 601 771.2 601C728.3 601 685.7 601 642.8 601C600 601 557 601 514.2 601C471.3 601 428.7 601 385.8 601C343 601 300 601 257.2 601C214.3 601 171.7 601 128.8 601C86 601 43 601 21.5 601L0 601Z" fill="#221812"></path><path d="M0 545L21.5 548.2C43 551.3 86 557.7 128.8 551.2C171.7 544.7 214.3 525.3 257.2 513.7C300 502 343 498 385.8 502.2C428.7 506.3 471.3 518.7 514.2 530C557 541.3 600 551.7 642.8 552C685.7 552.3 728.3 542.7 771.2 530.8C814 519 857 505 878.5 498L900 491L900 601L878.5 601C857 601 814 601 771.2 601C728.3 601 685.7 601 642.8 601C600 601 557 601 514.2 601C471.3 601 428.7 601 385.8 601C343 601 300 601 257.2 601C214.3 601 171.7 601 128.8 601C86 601 43 601 21.5 601L0 601Z" fill="#1a120b"></path></svg>