<svg id="visual" viewBox="0 0 900 600" width="900" height="600" xmlns="http://www.w3.org/2000/svg" xmlns:xlink="http://www.w3.org/1999/xlink" version="1.1"><rect x="0" y="0" width="900" height="600" fill="#1a120b"></rect><path d="M0 304L13.7 326.5C27.3 349 54.7 394 82 402.7C109.3 411.3 136.7 383.7 163.8 360.5C191 337.3 218 318.7 245.2 324C272.3 329.3 299.7 358.7 327 366C354.3 373.3 381.7 358.7 409 347C436.3 335.3 463.7 326.7 491 340C518.3 353.3 545.7 388.7 573 395.7C600.3 402.7 627.7 381.3 654.8 385C682 388.7 709 417.3 736.2 431.8C763.3 446.3 790.7 446.7 818 446.7C845.3 446.7 872.7 446.3 886.3 446.2L900 446L900 601L886.3 601C872.7 601 845.3 601 818 601C790.7 601 763.3 601 736.2 601C709 601 682 601 654.8 601C627.7 601 600.3 601 573 601C545.7 601 518.3 601 491 601C463.7 601 436.3 601 409 601C381.7 601 354.3 601 327 601C299.7 601 272.3 601 245.2 601C218 601 191 601 163.8 601C136.7 601 109.3 601 82 601C54.7 601 27.3 601 13.7 601L0 601Z" fill="#3c2a21"></path><path d="M0 487L13.7 474C27.3 461 54.7 435 82 426.8C109.3 418.7 136.7 428.3 163.8 431.2C191 434 218 430 245.2 433.2C272.3 436.3 299.7 446.7 327 447.7C354.3 448.7 381.7 440.3 409 440.5C436.3 440.7 463.7 449.3 491 449.2C518.3 449 545.7 440 573 444.2C600.3 448.3 627.7 465.7 654.8 460.3C682 455 709 427 736.2 414C763.3 401 790.7 403 818 416.7C845.3 430.3 872.7 455.7 886.3 468.3L900 481L900 601L886.3 601C872.7 601 845.3 601 818 601C790.7 601 763.3 601 736.2 601C709 601 682 601 654.8 601C627.7 601 600.3 601 573 601C545.7 601 518.3 601 491 601C463.7 601 436.3 601 409 601C381.7 601 354.3 601 327 601C299.7 601 272.3 601 245.2 601C218 601 191 601 163.8 601C136.7 601 109.3 601 82 601C54.7 601 27.3 601 13.7 601L0 601Z" fill="#726357"></path><path d="M0 429L13.7 430.2C27.3 431.3 54.7 433.7 82 446.7C109.3 459.7 136.7 483.3 163.8 486.3C191 489.3 218 471.7 245.2 469.3C272.3 467 299.7 480 327 476.8C354.3 473.7 381.7 454.3 409 454C436.3 453.7 463.7 472.3 491 474.8C518.3 477.3 545.7 463.7 573 470.3C600.3 477 627.7 504 654.8 502.5C682 501 709 471 736.2 457.7C763.3 444.3 790.7 447.7 818 446.5C845.3 445.3 872.7 439.7 886.3 436.8L900 434L900 601L886.3 601C872.7 601 845.3 601 818 601C790.7 601 763.3 601 736.2 601C709 601 682 601 654.8 601C627.7 601 600.3 601 573 601C545.7 601 518.3 601 491 601C463.7 601 436.3 601 409 601C381.7 601 354.3 601 327 601C299.7 601 272.3 601 245.2 601C218 601 191 601 163.8 601C136.7 601 109.3 601 82 601C54.7 601 27.3 601 13.7 601L0 601Z" fill="#aca395"></path><path d="M0 492L13.7 494.5C27.3 497 54.7 502 82 501.2C109.3 500.3 136.7 493.7 163.8 503.3C191 513 218 539 245.2 551.5C272.3 564 299.7 563 327 560.5C354.3 558 381.7 554 409 544C436.3 534 463.7 518 491 514.8C518.3 511.7 545.7 521.3 573 519.2C600.3 517 627.7 503 654.8 508.2C682 513.3 709 537.7 736.2 546.5C763.3 555.3 790.7 548.7 818 544.5C845.3 540.3 872.7 538.7 886.3 537.8L900 537L900 601L886.3 601C872.7 601 845.3 601 818 601C790.7 601 763.3 601 736.2 601C709 601 682 601 654.8 601C627.7 601 600.3 601 573 601C545.7 601 518.3 601 491 601C463.7 601 436.3 601 409 601C381.7 601 354.3 601 327 601C299.7 601 272.3 601 245.2 601C218 601 191 601 163.8 601C136.7 601 109.3 601 82 601C54.7 601 27.3 601 13.7 601L0 601Z" fill="#eae7d9"></path></svg>