<svg id="visual" viewBox="0 0 900 600" width="900" height="600" xmlns="http://www.w3.org/2000/svg" xmlns:xlink="http://www.w3.org/1999/xlink" version="1.1"><rect x="0" y="0" width="900" height="600" fill="#3c2a21"></rect><path d="M0 332L15 324.7C30 317.3 60 302.7 90 306C120 309.3 150 330.7 180 331C210 331.3 240 310.7 270 304C300 297.3 330 304.7 360 318.5C390 332.3 420 352.7 450 358.2C480 363.7 510 354.3 540 351.3C570 348.3 600 351.7 630 349.7C660 347.7 690 340.3 720 335.3C750 330.3 780 327.7 810 321C840 314.3 870 303.7 885 298.3L900 293L900 0L885 0C870 0 840 0 810 0C780 0 750 0 720 0C690 0 660 0 630 0C600 0 570 0 540 0C510 0 480 0 450 0C420 0 390 0 360 0C330 0 300 0 270 0C240 0 210 0 180 0C150 0 120 0 90 0C60 0 30 0 15 0L0 0Z" fill="#d5cea3"></path><path d="M0 315L15 307.2C30 299.3 60 283.7 90 272.2C120 260.7 150 253.3 180 253.3C210 253.3 240 260.7 270 265.2C300 269.7 330 271.3 360 282.7C390 294 420 315 450 323.7C480 332.3 510 328.7 540 314.3C570 300 600 275 630 265.3C660 255.7 690 261.3 720 264C750 266.7 780 266.3 810 267.3C840 268.3 870 270.7 885 271.8L900 273L900 0L885 0C870 0 840 0 810 0C780 0 750 0 720 0C690 0 660 0 630 0C600 0 570 0 540 0C510 0 480 0 450 0C420 0 390 0 360 0C330 0 300 0 270 0C240 0 210 0 180 0C150 0 120 0 90 0C60 0 30 0 15 0L0 0Z" fill="#dad3ae"></path><path d="M0 195L15 194.3C30 193.7 60 192.3 90 201C120 209.7 150 228.3 180 230.2C210 232 240 217 270 215C300 213 330 224 360 230.5C390 237 420 239 450 237C480 235 510 229 540 223C570 217 600 211 630 205.5C660 200 690 195 720 205C750 215 780 240 810 242.5C840 245 870 225 885 215L900 205L900 0L885 0C870 0 840 0 810 0C780 0 750 0 720 0C690 0 660 0 630 0C600 0 570 0 540 0C510 0 480 0 450 0C420 0 390 0 360 0C330 0 300 0 270 0C240 0 210 0 180 0C150 0 120 0 90 0C60 0 30 0 15 0L0 0Z" fill="#ded8b9"></path><path d="M0 160L15 158.3C30 156.7 60 153.3 90 154.5C120 155.7 150 161.3 180 166.5C210 171.7 240 176.3 270 178.5C300 180.7 330 180.3 360 181C390 181.7 420 183.3 450 179.7C480 176 510 167 540 160.7C570 154.3 600 150.7 630 153.2C660 155.7 690 164.3 720 174.5C750 184.7 780 196.3 810 197.7C840 199 870 190 885 185.5L900 181L900 0L885 0C870 0 840 0 810 0C780 0 750 0 720 0C690 0 660 0 630 0C600 0 570 0 540 0C510 0 480 0 450 0C420 0 390 0 360 0C330 0 300 0 270 0C240 0 210 0 180 0C150 0 120 0 90 0C60 0 30 0 15 0L0 0Z" fill="#e2ddc3"></path><path d="M0 108L15 107.5C30 107 60 106 90 106.2C120 106.3 150 107.7 180 106C210 104.3 240 99.7 270 106.3C300 113 330 131 360 132C390 133 420 117 450 114.3C480 111.7 510 122.3 540 122.5C570 122.7 600 112.3 630 112C660 111.7 690 121.3 720 121C750 120.7 780 110.3 810 110C840 109.7 870 119.3 885 124.2L900 129L900 0L885 0C870 0 840 0 810 0C780 0 750 0 720 0C690 0 660 0 630 0C600 0 570 0 540 0C510 0 480 0 450 0C420 0 390 0 360 0C330 0 300 0 270 0C240 0 210 0 180 0C150 0 120 0 90 0C60 0 30 0 15 0L0 0Z" fill="#e6e2ce"></path><path d="M0 47L15 46.8C30 46.7 60 46.3 90 50C120 53.7 150 61.3 180 66C210 70.7 240 72.3 270 67.7C300 63 330 52 360 46.5C390 41 420 41 450 42.8C480 44.7 510 48.3 540 53.3C570 58.3 600 64.7 630 65.7C660 66.7 690 62.3 720 62.8C750 63.3 780 68.7 810 68.5C840 68.3 870 62.7 885 59.8L900 57L900 0L885 0C870 0 840 0 810 0C780 0 750 0 720 0C690 0 660 0 630 0C600 0 570 0 540 0C510 0 480 0 450 0C420 0 390 0 360 0C330 0 300 0 270 0C240 0 210 0 180 0C150 0 120 0 90 0C60 0 30 0 15 0L0 0Z" fill="#eae7d9"></path></svg>
