<?xml version="1.0" encoding="UTF-8"?>
<svg version="1.1" xmlns="http://www.w3.org/2000/svg" width="225" height="225">
<path d="M0 0 C74.25 0 148.5 0 225 0 C225 74.25 225 148.5 225 225 C150.75 225 76.5 225 0 225 C0 150.75 0 76.5 0 0 Z " fill="#CFCFCF" transform="translate(0,0)"/>
<path d="M0 0 C2.0012194 1.46412743 3.75712812 2.85462053 5.4140625 4.69921875 C7.54537874 6.61530355 9.65510893 7.19437039 12.375 8.0625 C19.31387759 10.48516477 23.55701477 13.4764768 27 20.125 C28.99927619 27.31214159 29.79171728 34.07591386 27 41.125 C25.79020181 43.25589454 24.45125403 45.1416195 23 47.125 C23 47.785 23 48.445 23 49.125 C23.515625 49.516875 24.03125 49.90875 24.5625 50.3125 C26 52.125 26 52.125 25.875 55.4375 C24.99317864 59.15374715 24.12019203 61.94471196 22 65.125 C19.3125 66 19.3125 66 17 66.125 C16.9071875 67.919375 16.9071875 67.919375 16.8125 69.75 C16.25507669 74.43071632 14.00639777 76.53198804 11 80.125 C10.47099499 82.33721335 10.47099499 82.33721335 10.1875 84.6875 C9.69241965 87.53781697 9.37367956 88.7729589 7.24609375 90.77734375 C-0.17128942 95.49004576 -7.32192318 95.8583586 -16 95.125 C-21.8308037 93.53791734 -26.89778512 90.54276987 -31 86.125 C-31.04346799 84.12547242 -31.039992 82.12460012 -31 80.125 C-32.04485581 78.37903061 -32.04485581 78.37903061 -33.4375 76.6875 C-36.22789674 73.15615046 -36.7272515 70.57989219 -37 66.125 C-37.7425 66.125 -38.485 66.125 -39.25 66.125 C-42.40797508 64.97664543 -42.75653534 64.41231341 -44.3125 61.5625 C-46.25324117 57.25233989 -46.33391327 53.79978578 -46 49.125 C-44.515 48.63 -44.515 48.63 -43 48.125 C-43.33 47.465 -43.66 46.805 -44 46.125 C-44.13284368 42.80021801 -44.24788367 39.48177312 -44.25390625 36.15429688 C-44.39275408 32.20444156 -44.79709738 30.36787847 -47.359375 27.30078125 C-48.23078125 26.58277344 -49.1021875 25.86476563 -50 25.125 C-51 24.125 -52 23.125 -53 22.125 C-40.75339731 7.877476 -20.0025024 -13.17158247 0 0 Z " fill="#B1B1B1" transform="translate(123,45.875)"/>
<path d="M0 0 C0.66 0.70125 1.32 1.4025 2 2.125 C11.06298478 11.08615349 19.27040444 14.49447044 32.0402832 14.42626953 C39.9949798 14.15407342 47.35624034 11.81478268 53 6 C54.80979141 2.88337092 54.80979141 2.88337092 56 0 C60.80448082 1.87278487 65.44254401 4.04089394 70.109375 6.23046875 C72.92621569 7.53366229 75.77047115 8.74482025 78.640625 9.92578125 C79.43509033 10.2594873 80.22955566 10.59319336 81.0480957 10.93701172 C82.60283107 11.58800851 84.16371068 12.22458318 85.73120117 12.84423828 C92.57873876 15.74538989 97.38945461 20.44725366 100.3125 27.375 C102 33 102 33 103 50 C53.83 50 4.66 50 -46 50 C-43.77479271 25.52271982 -43.77479271 25.52271982 -33.22949219 16.59619141 C-28.86275612 13.46985321 -23.90900948 11.49943687 -19 9.375 C-12.48323813 6.50698744 -6.09764989 3.6897711 0 0 Z " fill="#B1B1B1" transform="translate(84,133)"/>
</svg>
