<?xml version="1.0" encoding="UTF-8"?>
<svg version="1.1" xmlns="http://www.w3.org/2000/svg" width="500" height="500">
<path d="M0 0 C0.71445282 0.00304138 1.42890564 0.00608276 2.16500854 0.00921631 C36.13909427 0.222048 66.19862821 12.93175733 90.75 36.4375 C91.49636719 37.12070313 92.24273437 37.80390625 93.01171875 38.5078125 C99.63236958 44.77027804 104.72963336 51.88098262 109.75 59.4375 C110.3790625 60.37078125 111.008125 61.3040625 111.65625 62.265625 C128.97425728 89.81700023 133.737828 126.25798559 126.5847168 157.8215332 C122.06000769 175.67501971 114.19299145 192.49826341 102.6953125 206.921875 C100.8281507 209.33643765 99.26391717 211.79052532 97.75 214.4375 C98.58789062 214.68628906 99.42578125 214.93507813 100.2890625 215.19140625 C104.12728013 216.57333788 107.59103425 218.36534418 111.125 220.375 C111.8161792 220.766875 112.5073584 221.15875 113.21948242 221.5625 C125.15190306 228.44809355 136.33417966 236.42130552 146.75 245.4375 C147.9565625 246.47777344 147.9565625 246.47777344 149.1875 247.5390625 C160.94483501 257.90209817 171.40328351 268.86402451 180.75 281.4375 C181.1737793 281.99518066 181.59755859 282.55286133 182.03417969 283.12744141 C189.2921633 292.68666887 195.22749079 302.79092137 200.75 313.4375 C201.33612061 314.56067627 201.33612061 314.56067627 201.93408203 315.70654297 C212.30651433 335.83767992 218.70574938 357.20493512 222.75 379.4375 C222.88132324 380.13681641 223.01264648 380.83613281 223.14794922 381.55664062 C224.82343034 390.83405924 224.9973313 400.15861027 225.125 409.5625 C225.15118408 410.73780273 225.17736816 411.91310547 225.2043457 413.12402344 C225.22511185 423.78397838 225.22511185 423.78397838 220.75 428.4375 C216.15258753 432.07235833 213.15945937 432.93794656 207.32862091 432.94086456 C206.23446421 432.94958521 206.23446421 432.94958521 205.11820334 432.95848203 C202.67258172 432.97308654 200.22796303 432.95919536 197.78234863 432.94543457 C196.01190188 432.95004332 194.24145895 432.95639606 192.47102404 432.96434355 C187.60478468 432.98106357 182.73885854 432.97277834 177.87261796 432.96039867 C172.62509413 432.95136146 167.37762476 432.96531131 162.13011169 432.97631836 C151.84977193 432.99412235 141.56954885 432.99025521 131.28920448 432.9786678 C122.93555548 432.96964115 114.58193922 432.96840614 106.22828674 432.97276306 C105.04020205 432.97337599 103.85211735 432.97398893 102.62803009 432.97462043 C100.21460067 432.97589931 97.80117126 432.97719616 95.38774186 432.9785108 C72.74701307 432.98992211 50.10634901 432.97679424 27.46563083 432.95530933 C8.03092849 432.93743787 -11.40367829 432.94054182 -30.83837891 432.95898438 C-53.39705304 432.98038134 -75.95567041 432.98882342 -98.51435328 432.97653532 C-100.91899776 432.9752611 -103.32364225 432.97400362 -105.72828674 432.97276306 C-106.91147585 432.97214596 -108.09466495 432.97152886 -109.31370828 432.97089306 C-117.65913947 432.96743664 -126.0045347 432.97327479 -134.34996033 432.98268127 C-144.51765658 432.99388959 -154.68522929 432.99088576 -164.85291135 432.9695583 C-170.0424984 432.9590322 -175.23187931 432.95495266 -180.42146492 432.96815491 C-185.16986928 432.98005227 -189.91787594 432.97356013 -194.66624409 432.9522447 C-196.38620995 432.94776736 -198.10620923 432.9500702 -199.8261537 432.95974785 C-202.16078984 432.97187903 -204.49405668 432.9594715 -206.82862091 432.94086456 C-208.12629033 432.94021515 -209.42395974 432.93956574 -210.76095247 432.93889666 C-215.98519229 432.18814266 -219.0226194 429.72614752 -222.59765625 425.97265625 C-225.08480972 420.65144138 -224.79951669 415.67641312 -224.6875 409.875 C-224.67356201 408.67278809 -224.65962402 407.47057617 -224.64526367 406.23193359 C-223.52419124 351.17157478 -198.9939556 298.83251368 -161.25 259.4375 C-160.74259277 258.90286133 -160.23518555 258.36822266 -159.71240234 257.81738281 C-158.15211513 256.18021749 -156.57879202 254.55681211 -155 252.9375 C-154.29339233 252.19862549 -154.29339233 252.19862549 -153.57250977 251.44482422 C-149.37314245 247.20666198 -145.14341568 243.93372261 -139.15234375 242.90625 C-133.04493496 242.97062322 -128.94148462 243.09787672 -124.25 247.4375 C-120.24762691 251.87256207 -118.85850454 255.20395253 -118.98046875 261.2578125 C-119.83063082 268.13303617 -123.77225062 272.2502394 -128.921875 276.484375 C-162.97287856 305.05065315 -184.33961412 351.06447309 -188.92578125 394.70703125 C-189.25 397.4375 -189.25 397.4375 -190.25 400.4375 C-64.52 400.4375 61.21 400.4375 190.75 400.4375 C190.09 396.8075 189.43 393.1775 188.75 389.4375 C188.46640625 387.87128906 188.1828125 386.30507813 187.890625 384.69140625 C178.22701424 332.96298727 150.61199545 288.66087052 107.29199219 258.57177734 C99.43259072 253.23491679 91.24854181 248.6096048 82.71777344 244.43603516 C80.90032876 243.51378345 79.13774915 242.48548645 77.3828125 241.44921875 C71.86802886 238.55536557 71.86802886 238.55536557 65.83056641 239.02685547 C62.11693087 240.6857973 58.68535586 242.76684126 55.2109375 244.87109375 C50.86920536 247.47555999 46.49027062 249.24299792 41.6875 250.8125 C41.02919189 251.03784424 40.37088379 251.26318848 39.69262695 251.49536133 C26.84091271 255.60907864 13.91829025 256.99735105 0.5 256.875 C-0.21445282 256.87195862 -0.92890564 256.86891724 -1.66500854 256.86578369 C-35.80281126 256.65192639 -65.45455244 243.85990975 -90.25 220.4375 C-91.00023437 219.75171875 -91.75046875 219.0659375 -92.5234375 218.359375 C-108.81392439 202.92628216 -119.37141646 181.87140999 -125.25 160.4375 C-125.58902344 159.26316406 -125.92804688 158.08882812 -126.27734375 156.87890625 C-134.20371142 123.52971875 -126.52339082 88.39627229 -109.25 59.4375 C-104.32124376 51.78942998 -98.48737979 45.0405193 -92.25 38.4375 C-91.56421875 37.68726563 -90.8784375 36.93703125 -90.171875 36.1640625 C-76.95738247 22.2154315 -59.15980435 12.1541952 -41.0625 6 C-40.4118457 5.77731445 -39.76119141 5.55462891 -39.09082031 5.32519531 C-26.25899613 1.27665185 -13.38342654 -0.12203315 0 0 Z M-41.25 42.4375 C-42.17296875 42.87835938 -43.0959375 43.31921875 -44.046875 43.7734375 C-65.49021732 54.73740631 -82.12562574 74.68886583 -89.91845703 97.38427734 C-96.09465947 116.81266396 -97.2126736 139.05123234 -90.25 158.4375 C-89.87617188 159.49453125 -89.50234375 160.5515625 -89.1171875 161.640625 C-79.53304058 186.39438194 -61.11644969 205.16003515 -37.33984375 216.53271484 C-14.03402417 226.62282785 12.6653034 226.27235191 36.0625 217.0625 C37.96948856 216.21208618 39.86588461 215.33745456 41.75 214.4375 C42.67296875 213.99664062 43.5959375 213.55578125 44.546875 213.1015625 C65.99021732 202.13759369 82.62562574 182.18613417 90.41845703 159.49072266 C98.17972557 135.07621759 96.79474557 109.56041762 85.75 86.4375 C85.08871094 85.05304688 85.08871094 85.05304688 84.4140625 83.640625 C73.45009369 62.19728268 53.49863417 45.56187426 30.80322266 37.76904297 C6.62015487 30.08134737 -18.34647476 31.497548 -41.25 42.4375 Z " fill="#0A0A0A" transform="translate(250.25,42.5625)"/>
</svg>
