<?xml version="1.0" standalone="no"?>
<!DOCTYPE svg PUBLIC "-//W3C//DTD SVG 20010904//EN"
 "http://www.w3.org/TR/2001/REC-SVG-20010904/DTD/svg10.dtd">
<svg version="1.0" xmlns="http://www.w3.org/2000/svg"
 width="224.000000pt" height="224.000000pt" viewBox="0 0 224.000000 224.000000"
 preserveAspectRatio="xMidYMid meet">

<g transform="translate(0.000000,224.000000) scale(0.100000,-0.100000)"
fill="#000000" stroke="none">
<path d="M955 1843 c-32 -7 -65 -25 -60 -34 3 -4 -11 -13 -32 -20 -20 -6 -42
-16 -47 -21 -70 -58 -84 -77 -125 -168 -13 -29 -9 -150 8 -230 18 -85 21 -93
35 -80 10 8 12 5 9 -14 -3 -13 0 -27 6 -30 6 -4 11 -12 11 -17 0 -5 -11 -2
-25 7 -31 20 -38 15 -29 -20 6 -25 24 -37 24 -15 0 6 6 9 13 6 6 -2 11 -11 9
-20 -1 -8 2 -18 8 -22 5 -3 10 1 10 10 0 9 5 13 10 10 6 -3 10 -22 10 -41 0
-19 4 -33 8 -30 10 6 9 -25 -1 -42 -6 -8 -3 -10 7 -6 9 3 16 15 16 25 0 10 5
19 11 19 12 0 3 75 -13 100 -7 11 -7 9 -3 -7 3 -12 2 -24 -3 -27 -6 -3 -12 8
-14 24 -3 17 -4 30 -4 30 1 1 19 3 41 6 22 3 44 10 50 15 5 5 29 9 55 9 28 0
58 8 79 21 27 16 36 18 42 7 11 -16 11 -20 1 -34 -11 -16 -48 -34 -74 -35
l-23 -1 23 -6 22 -7 -25 -37 c-14 -21 -29 -38 -33 -38 -5 0 -18 -14 -31 -30
-16 -22 -18 -32 -9 -35 7 -2 27 -10 43 -16 45 -17 127 -19 121 -3 -5 13 31 40
40 31 3 -2 29 1 59 8 60 14 83 3 49 -22 -18 -13 -17 -14 11 -8 l30 6 -28 -24
c-30 -25 -33 -26 -117 -28 -30 -1 -50 -4 -43 -6 7 -2 10 -10 7 -17 -7 -18 43
-41 90 -41 68 0 104 21 112 64 8 43 53 136 62 127 16 -16 11 -59 -11 -93 -13
-21 -27 -51 -31 -67 -13 -53 -53 -80 -138 -94 -67 -11 -81 -11 -107 2 -30 16
-81 74 -81 93 0 16 -49 34 -75 27 -19 -5 -24 -1 -27 18 -2 12 -10 23 -18 23
-8 0 -17 11 -20 25 -5 21 -7 22 -13 7 -15 -40 75 -191 161 -268 27 -24 75 -57
107 -74 53 -27 56 -30 32 -33 -43 -5 -62 -72 -20 -72 8 0 12 -4 9 -9 -4 -5 3
-7 14 -4 12 3 29 -2 41 -13 14 -12 33 -17 64 -15 25 1 45 -2 45 -8 0 -5 10
-13 22 -17 21 -6 21 -7 3 -20 -31 -23 -150 -18 -215 9 -109 45 -243 152 -256
204 -4 13 -1 36 6 51 11 26 11 26 -7 9 -11 -9 -25 -17 -31 -17 -6 0 -27 -14
-45 -30 -19 -16 -40 -30 -46 -30 -6 0 -11 -4 -11 -10 0 -9 -79 -60 -93 -60 -4
0 -3 8 0 17 5 14 1 13 -24 -5 -17 -12 -39 -22 -50 -22 -15 -1 -14 -3 6 -14
l24 -14 -21 -11 c-16 -8 -28 -9 -41 -1 -12 6 -22 6 -26 1 -3 -5 4 -13 16 -16
17 -6 19 -9 8 -16 -8 -5 -20 -2 -30 7 -20 18 -30 18 -23 0 4 -11 0 -13 -18
-10 l-23 5 23 -13 c17 -11 20 -16 10 -26 -7 -7 -20 -12 -29 -12 -10 0 -21 -9
-24 -20 -3 -11 -9 -20 -13 -20 -4 0 -23 -14 -42 -30 -19 -16 -38 -30 -43 -30
-12 0 -26 -44 -29 -90 -1 -22 -8 -46 -15 -52 -7 -6 -13 -15 -13 -20 0 -5 -9
-21 -20 -36 -12 -16 -23 -46 -25 -68 -6 -63 -23 -152 -30 -163 -4 -8 252 -11
854 -11 l860 0 12 58 c8 32 13 123 14 209 0 83 3 145 8 138 4 -8 14 -12 22 -9
8 4 13 10 10 14 -3 4 2 10 10 14 10 3 15 -1 15 -12 0 -13 2 -14 9 -3 5 7 14
10 20 7 6 -4 11 0 12 11 0 16 1 16 8 -2 5 -11 7 -23 4 -27 -2 -5 1 -8 6 -8 6
0 11 8 12 18 0 13 2 13 9 -4 8 -21 14 -22 92 -17 46 2 89 6 96 9 16 5 16 354
0 354 -6 0 -8 -7 -4 -15 3 -8 0 -15 -7 -15 -7 0 -18 -9 -25 -20 -7 -11 -19
-20 -26 -20 -8 0 -17 -6 -19 -12 -4 -10 -6 -10 -6 -1 -1 6 4 15 9 18 6 3 10
11 10 16 0 6 -4 7 -10 4 -6 -3 -10 -1 -10 5 0 6 6 10 13 9 29 -3 55 13 50 32
-6 20 -37 26 -48 9 -4 -6 -11 -8 -16 -5 -5 4 -17 1 -26 -5 -14 -9 -15 -10 -2
-7 14 5 15 2 5 -18 -6 -13 -12 -22 -15 -20 -2 2 -10 -3 -18 -11 -9 -8 -22 -13
-29 -10 -18 7 -18 -8 0 -23 11 -10 15 -8 19 6 4 14 5 13 6 -4 0 -13 -3 -23 -9
-23 -5 0 -10 -10 -10 -21 0 -19 -2 -20 -16 -8 -14 12 -16 7 -12 -49 1 -34 0
-62 -4 -62 -8 0 -12 39 -8 75 2 15 -1 17 -12 8 -11 -10 -14 -8 -14 8 0 10 4
19 8 19 4 0 8 25 8 55 0 44 -3 55 -16 55 -14 0 -14 -3 -4 -16 19 -22 -10 -15
-31 8 -9 10 -19 15 -23 11 -3 -3 -6 3 -6 15 0 39 43 65 68 40 13 -13 26 9 20
38 -4 25 -58 31 -58 7 0 -15 2 -16 10 -3 5 8 12 11 15 8 11 -11 -3 -25 -33
-36 -22 -7 -29 -7 -29 3 0 7 6 11 14 8 9 -4 11 0 7 11 -3 8 -11 14 -16 13 -6
-1 -13 4 -15 11 -3 7 4 12 16 12 14 0 21 6 20 18 0 10 -3 12 -6 5 -2 -7 -11
-13 -18 -13 -8 0 -20 -7 -29 -15 -13 -13 -15 -13 -21 6 -10 29 6 41 54 43 23
0 41 4 41 8 0 7 -32 12 -67 11 -7 -1 -10 3 -7 8 3 5 0 9 -5 9 -6 0 -11 -4 -11
-10 0 -13 -37 -13 -45 0 -6 10 -36 2 -47 -14 -12 -18 -9 -29 7 -23 8 4 17 2
20 -2 2 -5 -9 -11 -26 -15 -27 -5 -30 -9 -25 -31 4 -14 4 -25 0 -25 -12 0 -35
30 -29 39 3 5 0 13 -6 17 -8 5 -9 3 -4 -6 6 -10 3 -12 -13 -8 -23 6 -25 2 -25
-52 0 -14 -2 -18 -4 -9 -2 9 -16 19 -31 22 -15 3 -34 8 -42 11 -9 4 -20 -2
-27 -13 -10 -16 -8 -23 13 -46 30 -32 27 -43 -4 -17 -12 11 -18 23 -14 27 4 5
-1 5 -11 2 -14 -5 -16 -2 -14 16 2 12 2 17 0 11 -2 -7 -13 -10 -23 -7 -12 3
-22 -1 -26 -11 -3 -9 -11 -16 -16 -16 -6 0 -7 8 -3 18 5 14 4 15 -6 5 -17 -17
-29 -16 -29 2 0 8 5 15 10 15 6 0 10 8 10 18 0 13 2 14 9 3 6 -9 11 -10 15 -2
10 15 1 27 -24 34 -11 3 -17 1 -14 -5 9 -14 -17 -68 -33 -68 -8 0 -11 5 -7 12
4 7 3 8 -4 4 -6 -4 -27 0 -47 8 -30 13 -35 20 -35 48 0 50 17 99 44 127 40 42
57 95 55 170 -2 36 1 96 5 133 9 66 8 68 -16 77 -13 5 -32 21 -42 36 -17 26
-17 26 5 15 22 -12 22 -12 15 53 -3 36 -13 81 -21 101 -8 19 -15 53 -15 74 0
40 -22 69 -82 107 -15 9 -30 25 -33 34 -7 22 -50 44 -87 45 -15 1 -30 5 -34 9
-10 10 -36 9 -30 -1 5 -8 -33 -7 -89 1 -16 3 -39 3 -50 0z m220 -238 c22 -8
48 -15 58 -15 37 0 73 -28 85 -66 9 -30 9 -40 -1 -46 -7 -4 -9 -8 -4 -8 17 0
23 -2 34 -12 23 -19 3 -27 -27 -11 -25 12 -39 12 -86 3 -32 -7 -66 -21 -78
-32 -50 -48 -63 -52 -103 -33 -27 13 -51 16 -97 12 -33 -3 -62 -10 -64 -16 -2
-5 -10 -7 -18 -4 -8 3 -15 0 -15 -6 -1 -6 -2 -16 -3 -22 -3 -26 -86 -39 -86
-14 0 8 5 15 11 15 5 0 8 4 5 8 -3 5 1 25 8 46 10 28 10 47 2 77 -10 37 -8 41
18 67 16 15 30 22 33 16 6 -16 64 -9 118 15 26 12 58 21 71 21 13 0 24 5 24
10 0 15 69 11 115 -5z m90 -185 c-11 -5 -29 -9 -40 -9 l-20 0 20 9 c11 5 29 9
40 9 l20 0 -20 -9z m42 -16 c-3 -3 -12 -4 -19 -1 -8 3 -5 6 6 6 11 1 17 -2 13
-5z m-60 -10 c-3 -3 -12 -4 -19 -1 -8 3 -5 6 6 6 11 1 17 -2 13 -5z m-267 -26
c0 -4 -12 -8 -27 -9 l-28 -1 25 -7 c15 -4 20 -10 13 -14 -6 -4 -18 -5 -26 -1
-8 3 -28 -7 -46 -21 -22 -19 -31 -23 -31 -12 0 8 14 20 32 28 27 11 29 14 12
20 -17 6 -17 8 6 17 28 12 70 12 70 0z m37 -14 c-3 -3 -12 -4 -19 -1 -8 3 -5
6 6 6 11 1 17 -2 13 -5z m258 -3 c-6 -5 -29 -11 -52 -13 -23 -2 -39 0 -35 4 4
3 25 8 47 11 22 2 42 4 45 5 2 1 0 -2 -5 -7z m-150 -11 c3 -6 -4 -10 -17 -10
-18 0 -20 2 -8 10 19 12 18 12 25 0z m235 -5 c0 -19 -16 -34 -50 -50 -33 -15
-34 -16 -5 -9 72 16 95 15 95 -3 0 -15 -2 -16 -10 -3 -5 8 -10 10 -10 4 0 -5
7 -19 15 -30 17 -22 20 -38 5 -29 -5 3 -10 3 -10 -2 0 -4 -19 -9 -42 -10 -58
-4 -137 46 -95 60 6 2 3 3 -8 1 -26 -4 -70 18 -70 35 0 9 19 14 60 17 91 6
105 8 97 16 -4 3 -16 8 -27 11 -11 3 -3 4 17 3 21 0 38 -5 38 -11z m-290 -15
c0 -5 -4 -10 -10 -10 -5 0 -10 5 -10 10 0 6 5 10 10 10 6 0 10 -4 10 -10z m86
-30 c16 -17 42 -38 57 -46 23 -12 26 -18 16 -30 -6 -8 -21 -14 -34 -14 -12 0
-35 -4 -51 -9 -16 -5 -46 -12 -66 -16 -59 -9 -38 -32 37 -40 53 -5 62 -9 52
-20 -7 -7 -15 -11 -19 -9 -4 3 -37 -2 -74 -11 -43 -10 -71 -12 -77 -6 -14 14
97 231 119 231 6 0 24 -14 40 -30z m234 20 c0 -5 -4 -10 -9 -10 -6 0 -13 5
-16 10 -3 6 1 10 9 10 9 0 16 -4 16 -10z m-410 -17 c-8 -2 -24 -9 -36 -15 -12
-5 -32 -8 -45 -5 -22 4 -22 4 4 6 15 0 27 6 27 11 0 6 15 10 33 9 17 0 25 -3
17 -6z m300 -147 c0 -9 -15 -15 -45 -18 -25 -2 -45 0 -45 4 0 5 10 9 23 10 41
2 46 3 53 11 11 10 14 9 14 -7z m575 -277 c11 -16 1 -19 -13 -3 -7 8 -8 14 -3
14 5 0 13 -5 16 -11z m-16 -43 c10 -12 8 -13 -8 -9 -12 3 -18 9 -15 14 7 12
10 11 23 -5z m36 -6 c3 -5 1 -10 -4 -10 -6 0 -11 5 -11 10 0 6 2 10 4 10 3 0
8 -4 11 -10z m-158 -32 c-3 -8 -6 -5 -6 6 -1 11 2 17 5 13 3 -3 4 -12 1 -19z
m-190 -20 c-3 -8 -6 -5 -6 6 -1 11 2 17 5 13 3 -3 4 -12 1 -19z m130 0 c-3 -8
-6 -5 -6 6 -1 11 2 17 5 13 3 -3 4 -12 1 -19z m180 -20 c-3 -8 -6 -5 -6 6 -1
11 2 17 5 13 3 -3 4 -12 1 -19z m-187 -2 c0 -3 -4 -8 -10 -11 -5 -3 -10 -1
-10 4 0 6 5 11 10 11 6 0 10 -2 10 -4z m73 -36 c-3 -11 -7 -20 -9 -20 -2 0 -4
9 -4 20 0 11 4 20 9 20 5 0 7 -9 4 -20z m111 -9 c-14 -13 -54 -23 -54 -14 0
10 52 32 59 26 3 -2 0 -7 -5 -12z m111 -1 c3 -5 1 -10 -4 -10 -6 0 -11 5 -11
10 0 6 2 10 4 10 3 0 8 -4 11 -10z m-155 -40 c0 -5 -2 -10 -4 -10 -3 0 -8 5
-11 10 -3 6 -1 10 4 10 6 0 11 -4 11 -10z m57 -52 c-3 -8 -6 -5 -6 6 -1 11 2
17 5 13 3 -3 4 -12 1 -19z m240 -10 c-3 -7 -5 -2 -5 12 0 14 2 19 5 13 2 -7 2
-19 0 -25z m-220 -50 c-3 -7 -5 -2 -5 12 0 14 2 19 5 13 2 -7 2 -19 0 -25z
m228 -8 c3 -5 1 -10 -4 -10 -6 0 -11 5 -11 10 0 6 2 10 4 10 3 0 8 -4 11 -10z
m-164 -51 c-5 -13 -10 -19 -10 -12 -1 15 10 45 15 40 3 -2 0 -15 -5 -28z m106
-46 c-3 -10 -5 -4 -5 12 0 17 2 24 5 18 2 -7 2 -21 0 -30z m83 -33 c0 -5 -12
-10 -27 -9 l-28 1 25 8 c14 4 26 8 28 9 1 1 2 -3 2 -9z"/>
<path d="M1793 970 c6 -17 15 -26 20 -21 5 5 3 18 -5 30 -19 31 -28 26 -15 -9z"/>
<path d="M2149 983 c0 -11 -3 -13 -6 -5 -6 16 -20 15 -26 -1 -8 -20 33 -14 45
6 6 11 5 17 -2 17 -5 0 -10 -8 -11 -17z"/>
<path d="M1775 950 c3 -5 8 -10 11 -10 2 0 4 5 4 10 0 6 -5 10 -11 10 -5 0 -7
-4 -4 -10z"/>
<path d="M1666 925 c4 -8 10 -15 15 -15 4 0 6 7 3 15 -4 8 -10 15 -15 15 -4 0
-6 -7 -3 -15z"/>
<path d="M2100 927 c0 -10 -9 -12 -32 -9 -30 5 -32 3 -19 -12 8 -9 11 -20 7
-23 -4 -4 -11 -2 -15 5 -6 10 -11 9 -22 -4 -12 -16 -12 -17 5 -11 16 6 17 4
12 -18 -5 -19 -2 -25 10 -25 10 0 14 6 11 14 -8 21 3 27 26 15 17 -10 19 -9
15 7 -4 15 1 19 24 19 26 0 29 -3 26 -29 -2 -18 2 -31 11 -34 8 -3 11 0 7 7
-5 8 0 8 20 1 15 -6 29 -8 32 -5 3 3 -1 5 -9 6 -8 0 -4 4 7 9 26 10 31 59 5
58 -9 0 -25 3 -36 7 -16 5 -17 5 -5 -4 13 -9 13 -11 -2 -11 -9 0 -18 5 -20 11
-3 9 -10 9 -27 -1 -22 -11 -23 -11 -18 9 3 11 1 24 -4 27 -5 3 -9 -1 -9 -9z"/>
<path d="M1620 920 c0 -5 5 -10 11 -10 5 0 7 5 4 10 -3 6 -8 10 -11 10 -2 0
-4 -4 -4 -10z"/>
<path d="M1697 910 c-3 -13 -17 -22 -36 -26 -17 -4 -31 -10 -31 -14 0 -9 28
-7 53 4 9 5 29 6 43 3 18 -3 22 -1 15 6 -6 6 -11 19 -11 29 0 25 -26 23 -33
-2z"/>
<path d="M1418 843 c7 -3 16 -2 19 1 4 3 -2 6 -13 5 -11 0 -14 -3 -6 -6z"/>
<path d="M1645 830 c3 -5 11 -10 16 -10 6 0 7 5 4 10 -3 6 -11 10 -16 10 -6 0
-7 -4 -4 -10z"/>
<path d="M2064 810 c-12 -12 -6 -70 6 -70 4 0 11 7 14 16 3 8 2 13 -3 10 -13
-9 -20 31 -8 43 6 6 9 11 6 11 -3 0 -10 -5 -15 -10z"/>
<path d="M2120 810 c8 -5 22 -9 30 -9 10 0 8 3 -5 9 -27 12 -43 12 -25 0z"/>
<path d="M1986 751 c10 -10 21 -14 23 -8 4 10 -17 27 -33 27 -5 0 -1 -8 10
-19z"/>
<path d="M2026 753 c-9 -28 -1 -43 25 -43 22 0 25 15 5 27 -7 4 -15 15 -18 23
-4 11 -7 9 -12 -7z"/>
<path d="M20 744 c0 -8 5 -12 10 -9 6 4 8 11 5 16 -9 14 -15 11 -15 -7z"/>
<path d="M56 745 c4 -8 11 -15 16 -15 6 0 5 6 -2 15 -7 8 -14 15 -16 15 -2 0
-1 -7 2 -15z"/>
<path d="M120 741 c0 -5 -11 -12 -25 -15 -15 -4 -30 -18 -36 -33 l-10 -27 -12
24 c-7 13 -18 25 -24 28 -18 5 -16 -43 2 -58 20 -17 20 -44 -1 -36 -10 4 -14
1 -11 -6 2 -7 12 -12 21 -12 9 1 16 -4 16 -12 0 -8 -7 -14 -15 -14 -8 0 -15
-4 -15 -10 0 -5 7 -10 15 -10 8 0 20 -10 26 -22 7 -13 17 -26 23 -30 7 -5 5
-8 -6 -8 -11 0 -16 -7 -15 -20 1 -17 6 -19 37 -14 19 4 40 9 45 13 6 3 26 7
45 8 19 2 49 5 65 7 17 2 49 4 73 5 39 1 43 3 37 21 -7 21 10 28 18 8 3 -7 4
2 3 20 -2 21 1 32 9 32 7 0 12 11 11 25 -1 23 -26 37 -26 15 0 -19 -22 -10
-27 10 -6 21 -27 22 -29 2 -1 -7 -2 -18 -3 -24 -1 -10 -3 -10 -10 1 -12 18 -2
51 15 51 17 0 19 20 2 21 -7 0 -26 2 -42 4 -27 4 -28 3 -23 -31 5 -28 3 -35
-8 -31 -7 3 -21 -3 -30 -13 -9 -10 -27 -17 -41 -15 -13 1 -24 -2 -24 -6 0 -5
-4 -9 -8 -9 -13 0 -12 44 1 52 9 6 8 10 -3 18 -12 7 -12 10 -1 10 8 0 11 6 6
18 -4 12 -3 14 5 6 15 -15 20 -46 8 -61 -7 -8 -3 -10 11 -6 23 6 29 23 9 23
-9 0 -8 4 2 10 13 9 11 13 -9 31 -13 11 -30 18 -38 15 -7 -3 -13 -1 -13 5 0 6
-7 3 -16 -6 -13 -12 -14 -19 -4 -30 8 -10 9 -15 2 -15 -17 0 -25 39 -12 55 7
8 20 17 31 20 20 7 27 25 9 25 -5 0 -10 -4 -10 -9z m165 -81 c3 -5 1 -10 -4
-10 -6 0 -11 5 -11 10 0 6 2 10 4 10 3 0 8 -4 11 -10z m-58 -74 c-9 -7 -17
-19 -18 -27 0 -11 -2 -11 -6 -1 -6 14 27 56 36 46 3 -3 -2 -11 -12 -18z m-125
-52 c4 -32 3 -34 -9 -18 -14 20 -17 37 -6 47 10 11 11 9 15 -29z m72 18 c-3
-9 -16 -22 -29 -28 -23 -11 -24 -10 -14 7 5 10 14 19 20 19 6 0 7 5 4 10 -3 6
0 10 8 10 10 0 13 -7 11 -18z"/>
<path d="M370 700 c0 -5 7 -10 15 -10 8 0 15 5 15 10 0 6 -7 10 -15 10 -8 0
-15 -4 -15 -10z"/>
<path d="M226 661 c-4 -7 -5 -15 -2 -18 9 -9 19 4 14 18 -4 11 -6 11 -12 0z"/>
<path d="M405 650 c3 -5 14 -10 23 -10 15 0 15 2 2 10 -20 13 -33 13 -25 0z"/>
<path d="M0 476 c0 -10 8 -16 22 -16 12 0 19 1 17 3 -2 1 -12 9 -21 16 -15 12
-18 11 -18 -3z"/>
<path d="M255 460 c-16 -6 -14 -8 13 -7 18 0 35 4 38 9 6 10 -24 9 -51 -2z"/>
<path d="M92 432 l-92 -3 0 -49 c0 -29 5 -50 11 -50 5 0 7 5 4 10 -3 6 -2 10
4 10 5 0 12 -6 15 -12 4 -9 5 -8 5 2 -3 35 1 37 70 33 l69 -3 5 33 c2 17 4 32
3 32 0 0 -43 -1 -94 -3z"/>
<path d="M2180 369 c-14 -6 -80 -13 -147 -16 -68 -3 -123 -9 -123 -12 0 -3 74
-5 165 -3 156 3 165 4 165 22 0 22 -20 25 -60 9z"/>
<path d="M80 340 c0 -15 7 -20 25 -20 14 0 25 2 25 4 0 2 -11 11 -25 20 -24
16 -25 16 -25 -4z"/>
<path d="M148 330 c-8 -12 -24 -20 -40 -20 -14 0 -29 -6 -31 -12 -4 -10 -8
-10 -15 1 -8 11 -10 11 -15 0 -4 -10 -6 -10 -6 -1 -1 6 -6 12 -12 12 -5 0 -7
-4 -4 -10 3 -5 2 -10 -4 -10 -5 0 -12 6 -14 13 -3 6 -6 2 -6 -10 -1 -22 2 -23
61 -19 35 2 78 4 96 5 21 1 32 6 32 16 0 8 -7 15 -16 15 -11 0 -15 6 -11 20 3
11 3 20 1 20 -2 0 -9 -9 -16 -20z"/>
<path d="M215 330 c3 -5 8 -10 11 -10 2 0 4 5 4 10 0 6 -5 10 -11 10 -5 0 -7
-4 -4 -10z"/>
</g>
</svg>
