<?xml version="1.0" standalone="no"?>
<!DOCTYPE svg PUBLIC "-//W3C//DTD SVG 20010904//EN"
 "http://www.w3.org/TR/2001/REC-SVG-20010904/DTD/svg10.dtd">
<svg version="1.0" xmlns="http://www.w3.org/2000/svg"
 width="800.000000pt" height="800.000000pt" viewBox="0 0 800.000000 800.000000"
 preserveAspectRatio="xMidYMid meet">

<g transform="translate(0.000000,800.000000) scale(0.100000,-0.100000)"
fill="#000000" stroke="none">
<path d="M0 4000 l0 -4000 3180 0 3181 0 -6 33 c-6 28 -2 36 29 62 28 23 34
34 29 53 -3 14 1 30 10 40 8 9 17 31 19 47 3 26 6 30 31 27 31 -4 34 3 12 24
-8 9 -15 20 -15 25 0 6 7 3 16 -5 20 -21 33 -20 33 2 1 25 8 77 10 77 1 0 4
16 7 35 9 82 30 120 65 120 9 0 19 6 22 13 2 6 8 8 13 4 5 -4 2 -12 -5 -16
-11 -7 -10 -13 4 -35 10 -14 14 -26 11 -26 -4 0 0 -13 9 -30 9 -16 20 -30 25
-30 15 0 12 -87 -3 -93 -9 -4 -9 -6 1 -6 17 -1 15 -30 -4 -38 -8 -3 -14 -15
-13 -27 4 -51 -1 -66 -21 -66 -11 0 -20 -6 -20 -12 0 -10 -3 -9 -9 1 -5 7 -14
10 -20 7 -16 -10 -14 -26 4 -26 11 0 15 -12 15 -48 0 -26 -5 -53 -11 -59 -6
-6 -8 -20 -4 -31 6 -21 12 -21 396 -22 380 0 389 0 389 20 0 10 9 24 20 30 23
12 27 30 6 30 -18 0 -30 33 -22 58 6 18 -4 19 -169 20 -149 1 -175 -1 -175
-13 0 -8 -4 -15 -9 -15 -5 0 -23 -12 -41 -26 -26 -22 -37 -25 -70 -20 -26 4
-40 2 -40 -5 0 -13 -55 -8 -55 6 -1 6 -5 19 -11 30 -6 11 -12 41 -13 68 l-3
47 44 1 c88 3 154 1 176 -6 13 -4 22 -3 22 3 0 6 -8 12 -17 14 -10 2 6 7 36
12 30 4 57 3 60 -1 6 -9 30 -9 176 4 59 5 101 14 118 26 23 15 27 15 27 2 0
-11 11 -15 39 -15 22 0 52 -5 68 -11 15 -6 72 -13 126 -16 71 -2 103 -8 114
-19 9 -8 23 -12 34 -9 13 4 19 2 19 -9 0 -23 32 -24 67 -1 34 21 42 35 21 35
-7 1 -4 6 7 13 11 7 31 21 43 32 l22 19 0 3848 0 3848 -1483 0 -1483 0 -16
-27 c-10 -16 -31 -44 -47 -63 -22 -25 -31 -45 -31 -71 0 -75 -53 -129 -127
-129 -37 0 -46 -5 -75 -41 -18 -23 -48 -58 -65 -79 -18 -20 -40 -54 -48 -74
-8 -20 -20 -36 -26 -36 -6 0 -23 -8 -37 -19 -16 -11 -51 -20 -86 -23 -53 -4
-62 -9 -99 -47 -61 -64 -77 -72 -148 -70 -69 1 -200 -7 -265 -16 -43 -6 -126
-72 -164 -130 -11 -17 -20 -24 -20 -15 -1 13 -2 13 -13 0 -7 -8 -32 -28 -56
-44 l-44 -28 7 33 c9 47 36 81 76 94 23 8 30 14 20 17 -18 6 -59 -13 -83 -39
-9 -11 -26 -44 -36 -74 -11 -30 -20 -46 -20 -35 -1 15 -4 16 -16 6 -13 -10
-15 -9 -15 9 0 15 -6 21 -23 21 -13 0 -27 -4 -32 -9 -10 -10 -45 -15 -82 -13
-12 1 -42 22 -65 46 -25 25 -63 51 -91 61 -26 10 -66 35 -87 56 -47 45 -86 51
-138 19 -41 -25 -49 -46 -28 -69 20 -23 21 -57 0 -65 -33 -13 -84 -5 -134 21
-40 21 -57 37 -76 74 -13 27 -33 53 -45 59 -11 7 -58 11 -104 11 -104 -1 -166
22 -190 69 -9 18 -14 34 -11 38 3 3 -1 16 -10 30 -9 14 -14 37 -12 53 5 32
-13 55 -37 46 -8 -4 -38 -1 -66 6 -39 9 -63 23 -96 55 -46 46 -52 71 -30 119
14 31 82 103 97 103 6 0 22 7 36 16 14 9 42 17 62 18 l37 1 0 67 0 68 -1237 0
-1238 0 0 -4000z m3930 3276 c0 -2 -8 -10 -17 -17 -16 -13 -17 -12 -4 4 13 16
21 21 21 13z m949 -498 c42 1 70 -3 80 -11 9 -8 31 -20 49 -28 17 -8 32 -17
32 -20 0 -4 12 -10 26 -13 15 -4 42 -19 61 -33 40 -31 103 -133 108 -177 2
-17 9 -32 15 -34 5 -2 10 -9 10 -15 0 -7 18 -48 40 -92 22 -44 40 -87 40 -95
0 -8 20 -31 45 -50 48 -38 63 -64 17 -30 -31 23 -88 39 -139 40 -40 0 -45 -20
-5 -21 27 -1 27 -1 -5 -11 -18 -6 -33 -17 -33 -24 0 -7 -11 -14 -26 -16 l-25
-3 24 -32 c29 -40 37 -146 11 -161 -13 -7 -13 -11 3 -29 19 -22 89 -38 98 -22
15 23 34 4 59 -61 15 -38 31 -70 35 -70 3 0 21 13 39 29 31 29 32 32 32 114 0
53 -6 98 -15 120 -8 20 -15 46 -15 57 0 17 3 19 18 11 10 -5 24 -22 32 -38 8
-15 21 -32 27 -36 15 -10 17 -37 3 -37 -5 0 -10 -20 -10 -44 0 -64 -29 -144
-68 -185 -29 -31 -33 -40 -28 -72 10 -61 -51 -348 -62 -294 -2 11 -13 28 -23
38 -10 10 -19 24 -19 31 0 7 -22 47 -50 87 -39 58 -47 76 -36 84 19 15 38 55
33 69 -3 7 -24 16 -47 20 -23 4 -56 14 -72 22 -34 18 -82 13 -108 -11 -9 -8
-39 -16 -66 -17 -45 -3 -49 -1 -52 20 -3 18 9 35 45 69 34 32 42 43 26 38 -17
-5 -23 -2 -23 9 0 9 5 16 10 16 6 0 10 5 10 11 0 6 -9 9 -20 6 -25 -6 -25 -9
3 44 28 52 40 106 27 114 -6 3 -10 -1 -10 -10 0 -28 -50 -115 -91 -160 -37
-40 -38 -44 -23 -59 12 -12 13 -20 5 -29 -11 -14 -16 -52 -13 -99 2 -22 11
-32 44 -48 23 -11 48 -20 56 -20 10 0 10 -3 -3 -16 -12 -12 -19 -13 -29 -5
-10 9 -15 8 -20 -4 -3 -8 -11 -15 -17 -15 -7 0 -20 -6 -28 -14 -9 -8 -28 -17
-43 -20 -36 -6 -85 -43 -109 -83 -14 -23 -28 -33 -45 -33 -14 0 -23 -4 -20 -8
3 -5 1 -22 -4 -38 -4 -16 -9 -22 -9 -13 -1 9 -8 22 -16 29 -8 7 -15 23 -15 36
0 13 -5 24 -12 24 -6 0 -4 7 5 18 20 22 13 32 -24 32 -15 0 -29 7 -33 15 -3 8
-17 15 -31 15 -20 0 -25 5 -25 24 0 17 -5 23 -17 22 -10 0 -17 5 -15 12 4 20
-27 72 -43 72 -9 0 -12 6 -8 17 4 10 2 14 -4 10 -17 -11 -40 2 -47 26 -3 12
-8 18 -12 14 -4 -4 -13 -2 -20 3 -6 6 -23 13 -35 15 -13 3 -29 12 -35 20 -6 8
-23 15 -36 15 -14 0 -31 7 -38 15 -7 8 -19 15 -26 15 -8 0 -14 5 -14 10 0 6
-6 10 -14 10 -8 0 -18 9 -21 20 -4 11 -11 18 -16 15 -5 -4 -9 -3 -10 2 -5 78
-2 130 9 142 17 18 85 34 75 17 -4 -7 -1 -6 9 2 12 10 20 8 42 -9 21 -17 25
-24 14 -30 -7 -5 -8 -9 -2 -9 5 0 15 5 21 11 8 8 18 6 37 -6 15 -10 29 -15 32
-12 8 7 84 -22 105 -40 9 -7 43 -16 75 -19 47 -4 63 -10 77 -29 17 -23 76 -65
91 -65 4 0 -7 12 -26 27 -50 42 -52 45 -81 93 -32 55 -60 161 -55 206 4 30 1
34 -20 34 -32 0 -26 35 6 36 12 1 24 3 26 5 7 10 46 81 46 84 0 8 -145 -65
-148 -75 -2 -5 -10 -6 -19 -3 -12 5 -14 3 -8 -6 6 -10 2 -11 -15 -6 -20 6 -38
1 -92 -26 -23 -12 -25 -12 -32 7 -3 9 -2 12 5 9 13 -9 41 14 32 28 -4 6 0 8 9
4 20 -7 38 11 38 39 0 12 12 36 26 53 l26 31 -27 0 c-20 0 -26 4 -22 14 4 10
1 13 -9 9 -10 -4 -14 3 -14 26 0 20 -7 34 -20 41 -11 6 -20 18 -20 26 0 10 -6
14 -15 11 -20 -8 -28 9 -16 30 6 10 11 13 11 6 0 -6 15 -17 34 -23 29 -9 38
-8 55 7 24 20 27 43 6 43 -8 0 -15 6 -15 13 0 23 -25 66 -40 71 -8 2 -3 4 13
5 21 1 27 -4 27 -19 0 -11 7 -20 15 -20 8 0 24 -4 35 -10 11 -5 29 -15 40 -20
16 -8 20 -7 20 5 0 9 12 18 30 21 16 4 35 13 41 20 6 8 22 14 35 14 17 0 24 6
24 20 0 11 5 20 10 20 6 0 10 9 10 20 0 14 7 20 23 20 18 0 19 2 7 11 -12 8
-9 10 13 6 21 -3 27 -1 23 10 -9 23 22 26 49 5 22 -17 30 -18 66 -9 37 9 40
12 25 23 -13 9 -14 13 -4 17 7 2 17 2 22 -1 6 -3 39 -5 75 -4z m-472 -144 c-3
-3 -12 -4 -19 -1 -8 3 -5 6 6 6 11 1 17 -2 13 -5z m-179 -51 c-10 -2 -26 -2
-35 0 -10 3 -2 5 17 5 19 0 27 -2 18 -5z m62 -34 c0 -5 7 -9 15 -9 8 0 15 -5
15 -11 0 -6 -3 -9 -7 -7 -5 3 -23 10 -41 17 -23 9 -30 16 -21 21 14 9 39 2 39
-11z m50 -343 c0 -8 -7 -16 -15 -20 -12 -4 -13 -2 -2 14 14 24 17 25 17 6z
m80 -20 c0 -10 -351 -119 -358 -111 -2 2 19 13 47 25 28 13 48 27 45 32 -4 6
6 8 27 4 30 -5 31 -5 9 4 l-24 11 24 12 c27 14 59 0 36 -16 -16 -11 56 3 122
24 60 19 72 21 72 15z m1000 -71 c0 -8 -7 -15 -15 -15 -26 0 -18 20 13 29 1 1
2 -6 2 -14z m-137 -30 c18 -38 11 -49 -27 -39 -27 6 -41 41 -24 61 18 22 33
15 51 -22z m63 -40 c9 -40 -4 -27 -16 15 -6 20 -6 30 -1 24 5 -5 13 -22 17
-39z m-86 -25 c0 -5 -4 -10 -9 -10 -6 0 -13 5 -16 10 -3 6 1 10 9 10 9 0 16
-4 16 -10z m-1590 -70 c0 -5 -4 -10 -10 -10 -5 0 -10 5 -10 10 0 6 5 10 10 10
6 0 10 -4 10 -10z m37 4 c-3 -3 -12 -4 -19 -1 -8 3 -5 6 6 6 11 1 17 -2 13 -5z
m-67 -9 c0 -2 -10 -9 -22 -15 -22 -11 -22 -10 -4 4 21 17 26 19 26 11z m135
-29 c20 -15 20 -15 -2 -10 -12 4 -30 15 -40 26 -18 20 -17 21 2 10 11 -6 29
-17 40 -26z m-50 -64 c6 -4 10 -13 11 -19 1 -7 2 -19 3 -26 0 -8 11 -19 24
-24 21 -11 20 -12 -18 -27 -22 -9 -48 -21 -58 -27 -22 -12 -20 -14 -37 29 -11
29 -10 35 11 67 23 34 43 42 64 27z m182 -162 c-3 -12 -1 -18 5 -14 7 4 8 -4
3 -24 -3 -18 -2 -33 4 -37 6 -3 11 -13 11 -22 0 -11 -9 -6 -31 15 -29 29 -30
32 -19 66 12 37 36 51 27 16z m-85 -116 c13 -4 26 -7 31 -6 4 1 7 -3 7 -9 0
-17 -53 -1 -72 22 -10 12 -15 26 -11 32 4 6 9 2 14 -10 4 -12 18 -25 31 -29z
m1278 -49 c0 -10 10 -14 35 -13 55 2 64 -17 14 -30 -33 -8 -48 -7 -74 5 l-34
16 22 18 c27 22 37 24 37 4z m25 5 c3 -5 1 -10 -4 -10 -6 0 -11 5 -11 10 0 6
2 10 4 10 3 0 8 -4 11 -10z m-132 -41 c-26 -11 -33 -10 -33 2 0 5 5 7 10 4 6
-3 10 1 10 11 0 14 2 14 16 3 14 -12 14 -14 -3 -20z m-1090 -4 c-25 -18 -44
-20 -70 -11 -38 12 -26 21 33 22 48 1 53 0 37 -11z m1334 -21 c-9 -9 -28 6
-21 18 4 6 10 6 17 -1 6 -6 8 -13 4 -17z m-1277 -26 c0 -13 -4 -28 -8 -34 -10
-15 -47 -34 -68 -34 -12 0 -9 8 15 32 17 17 31 38 31 45 0 7 7 13 15 13 9 0
15 -9 15 -22z m1070 -28 c13 -8 13 -10 -2 -10 -9 0 -20 5 -23 10 -8 13 5 13
25 0z m-1210 -25 c7 -8 8 -15 2 -15 -5 0 -15 7 -22 15 -7 8 -8 15 -2 15 5 0
15 -7 22 -15z m1376 -54 c1 0 5 -12 8 -26 8 -30 26 -33 26 -4 0 26 24 20 29
-7 2 -10 7 -21 12 -24 11 -8 14 -93 4 -110 -4 -7 -10 -36 -12 -64 -5 -61 -17
-78 -49 -70 -14 4 -39 0 -56 -7 -24 -10 -33 -10 -36 -1 -5 17 -43 37 -40 21 2
-6 -3 -14 -9 -16 -7 -3 -13 2 -13 11 0 9 -7 16 -16 16 -8 0 -12 -5 -9 -10 3
-6 -2 -13 -12 -16 -10 -3 -26 -10 -36 -15 -13 -7 -23 -6 -33 2 -8 6 -35 13
-62 14 -52 4 -91 21 -137 60 -20 17 -26 28 -18 31 9 4 10 11 3 24 -7 13 -5 21
5 30 20 17 19 27 -4 33 -13 3 -21 -1 -24 -12 -3 -11 -5 -9 -6 6 0 12 -5 25
-11 28 -5 3 -10 13 -10 21 0 8 5 12 11 8 6 -3 23 5 37 19 15 14 38 28 52 32
23 7 24 7 10 -10 -14 -17 -13 -18 13 -11 18 4 34 2 43 -5 21 -17 17 -31 -6
-24 -28 9 -25 -10 5 -33 14 -11 25 -28 25 -38 0 -41 12 -64 34 -63 11 0 53 -4
91 -10 58 -8 72 -8 81 4 6 8 30 22 53 30 24 8 51 25 61 37 18 22 19 24 2 38
-10 8 -21 22 -24 31 -7 18 -57 29 -134 29 -40 0 -55 5 -73 24 -13 14 -21 28
-18 33 4 6 236 1 243 -6z m-291 -61 c3 -5 -1 -10 -10 -10 -9 0 -13 5 -10 10 3
6 8 10 10 10 2 0 7 -4 10 -10z m158 -711 c-1 -62 -5 -114 -7 -117 -3 -2 -3
-17 0 -32 4 -15 1 -31 -5 -34 -20 -13 -12 -35 10 -29 18 5 21 11 16 44 -5 41
-1 42 38 9 11 -9 77 -49 148 -89 175 -99 276 -167 289 -196 15 -33 3 -69 -38
-115 -69 -76 -124 -98 -319 -127 -93 -13 -179 -17 -382 -16 -259 1 -363 10
-455 40 l-48 15 0 60 0 60 45 -45 c43 -41 50 -45 114 -51 89 -9 155 6 206 49
35 28 41 39 41 70 0 36 29 75 65 87 18 6 1 28 -22 28 -15 0 -19 7 -19 30 0 42
26 100 44 100 9 0 16 7 16 15 0 8 4 15 9 15 5 0 12 18 16 40 4 22 12 43 18 47
7 4 3 9 -9 13 -16 6 -13 10 19 23 20 9 37 22 37 30 0 8 29 44 65 81 36 37 65
70 65 75 0 4 10 13 23 19 12 6 22 11 22 11 0 1 -1 -49 -2 -110z m-1373 -118
c0 -5 -7 -11 -15 -15 -15 -5 -20 5 -8 17 9 10 23 9 23 -2z m82 -123 c9 -7 18
-20 20 -28 3 -8 15 -15 29 -15 21 0 24 -4 21 -32 -2 -27 2 -33 17 -33 11 0 29
-12 40 -26 l21 -27 0 24 c0 24 0 24 14 -3 8 -15 12 -35 10 -45 -4 -12 6 -29
28 -48 18 -16 35 -29 38 -28 3 1 4 -5 2 -13 -3 -15 10 -17 45 -8 13 4 20 11
16 18 -3 6 0 6 8 -1 7 -7 21 -13 30 -13 10 0 30 -11 45 -25 15 -14 31 -25 37
-25 5 0 4 -6 -2 -14 -10 -12 -6 -15 19 -21 16 -4 30 -10 30 -15 0 -21 -246 76
-319 126 -20 13 -31 24 -26 24 6 0 19 -7 29 -15 11 -8 25 -15 30 -15 6 1 -2 8
-17 16 -22 12 -27 20 -21 37 6 20 6 20 -10 4 -22 -21 -40 -22 -32 -1 4 12 1
14 -14 9 -14 -4 -29 4 -55 30 -19 20 -35 41 -35 45 0 5 -14 24 -30 42 -17 18
-26 34 -20 36 5 2 10 8 10 14 0 6 -7 8 -15 4 -15 -5 -21 14 -8 27 11 11 48 8
65 -5z m120 -90 c-9 -9 -15 -9 -24 0 -9 9 -7 12 12 12 19 0 21 -3 12 -12z
m-2367 -582 c38 -40 48 -73 57 -190 13 -168 16 -244 17 -373 1 -82 5 -115 15
-126 9 -8 13 -29 12 -51 l-3 -37 66 7 c36 4 69 11 72 16 9 14 220 0 235 -15 3
-3 1 -21 -5 -40 -12 -35 -34 -52 -52 -41 -8 5 -39 -18 -39 -29 0 -3 16 -4 35
-2 40 4 44 -8 20 -55 -18 -36 -25 -38 -18 -7 4 21 4 21 -9 2 -13 -20 -76 -29
-89 -12 -3 4 -44 9 -91 10 -47 1 -81 5 -75 9 6 3 -1 8 -14 11 -21 4 -20 5 6 6
37 1 175 20 193 26 28 10 8 23 -55 33 -36 6 -70 9 -74 6 -14 -8 -232 25 -294
44 -55 18 -61 23 -90 75 -47 85 -96 338 -111 573 -7 103 2 144 31 144 7 0 15
5 17 11 3 8 22 8 66 2 51 -8 68 -7 99 7 38 17 59 16 78 -4z m-439 -68 c10 -28
6 -51 -9 -60 -8 -5 -6 -17 6 -43 9 -20 17 -54 17 -75 0 -22 3 -40 8 -40 4 0
12 -12 18 -27 43 -105 21 -353 -30 -353 -22 0 -48 44 -57 93 -4 23 -12 67 -18
97 -13 59 -7 147 14 220 8 31 10 61 4 95 -4 28 -8 65 -8 83 -1 27 2 32 23 32
17 0 27 -7 32 -22z m-231 -529 c4 -18 3 -35 -4 -42 -14 -14 -17 -9 -24 36 -7
47 18 53 28 6z m6848 -2567 c-40 -6 -27 -31 19 -34 62 -5 57 -23 -6 -23 -54 0
-54 0 -58 32 -4 36 3 42 42 34 24 -5 24 -6 3 -9z m-253 -62 c0 -5 -4 -10 -10
-10 -5 0 -10 5 -10 10 0 6 5 10 10 10 6 0 10 -4 10 -10z m210 -10 c0 -5 17
-10 38 -10 30 -1 34 -3 19 -11 -9 -6 -25 -8 -35 -5 -10 4 -42 2 -72 -4 -55
-10 -90 -6 -90 11 0 5 18 9 40 9 22 0 40 5 40 10 0 6 14 10 30 10 17 0 30 -4
30 -10z m130 -20 c0 -5 -7 -10 -15 -10 -8 0 -15 5 -15 10 0 6 7 10 15 10 8 0
15 -4 15 -10z m-1802 -168 c17 5 15 -10 -8 -67 -22 -55 -39 -70 -41 -37 0 9
-3 12 -5 5 -3 -7 -1 -20 4 -30 7 -12 6 -28 -3 -48 l-13 -30 1 34 c2 25 -5 42
-21 60 -19 20 -23 33 -18 60 7 44 13 49 32 25 14 -18 15 -18 8 5 -5 19 -3 23
10 18 11 -4 16 -1 16 10 0 12 3 13 14 4 8 -6 18 -10 24 -9z m-4348 -125 c0 -5
-4 -5 -10 -2 -5 3 -10 14 -10 23 0 15 2 15 10 2 5 -8 10 -19 10 -23z m4237 -9
c-3 -7 -5 -2 -5 12 0 14 2 19 5 13 2 -7 2 -19 0 -25z m-4258 -37 c1 -35 -5
-22 -12 24 -5 28 -4 34 3 20 5 -11 9 -31 9 -44z m28 7 c-3 -8 -6 -5 -6 6 -1
11 2 17 5 13 3 -3 4 -12 1 -19z"/>
<path d="M4428 6524 c-4 -3 -14 -7 -25 -9 -10 -2 -20 -4 -22 -4 -2 -1 1 -7 7
-13 11 -14 12 -18 12 -44 0 -14 1 -14 16 0 8 9 20 16 25 16 5 0 9 7 9 15 0 8
5 15 10 15 6 0 10 7 10 15 0 14 -31 21 -42 9z"/>
<path d="M4881 6326 c3 -3 31 -8 64 -11 88 -8 159 -23 253 -52 46 -14 86 -23
89 -20 9 9 -147 54 -246 71 -90 15 -169 21 -160 12z"/>
<path d="M4757 6299 c-17 -10 -17 -11 -1 -23 24 -18 11 -50 -17 -43 -16 4 -19
2 -14 -14 11 -33 13 -73 5 -94 -8 -22 -41 -28 -138 -24 -12 1 -33 -2 -47 -5
-20 -5 -23 -11 -20 -36 6 -50 25 -96 45 -115 26 -23 179 -32 224 -13 23 9 31
9 34 0 6 -18 26 -15 57 9 19 16 26 28 22 45 -4 21 4 30 16 22 2 -2 11 3 20 11
27 22 21 41 -13 41 -24 0 -30 -4 -30 -22 0 -19 -2 -20 -10 -8 -15 23 -12 40 7
40 12 0 5 9 -20 27 -36 25 -47 43 -28 43 6 0 13 -4 16 -10 3 -5 15 -10 26 -10
25 0 25 30 -1 37 -16 4 -18 9 -9 24 12 24 4 40 -17 32 -14 -5 -15 0 -9 34 6
39 5 41 -26 52 -39 13 -49 13 -72 0z"/>
<path d="M4928 6268 c20 -23 58 -36 46 -16 -3 4 17 8 44 8 36 0 52 -4 56 -16
10 -27 7 -36 -13 -29 -19 6 -20 2 -15 -61 4 -49 11 -75 27 -95 12 -15 24 -28
27 -28 3 -1 6 21 6 47 1 69 30 123 79 147 l40 19 -35 8 c-19 4 -69 12 -110 17
-41 6 -97 13 -125 17 l-50 7 23 -25z"/>
<path d="M4971 6214 c0 -11 3 -14 6 -6 3 7 2 16 -1 19 -3 4 -6 -2 -5 -13z"/>
<path d="M4108 6013 c7 -3 16 -2 19 1 4 3 -2 6 -13 5 -11 0 -14 -3 -6 -6z"/>
<path d="M5260 5720 c0 -17 27 -23 66 -15 44 8 42 11 -18 19 -32 5 -48 4 -48
-4z"/>
<path d="M4780 4273 c0 -5 7 -17 15 -27 8 -11 15 -31 14 -45 0 -23 -1 -23 -8
-7 -7 19 -8 19 -15 0 -4 -11 -3 -20 3 -22 6 -2 11 -13 11 -23 0 -12 4 -17 11
-14 6 4 8 13 5 21 -4 9 4 18 19 24 14 5 25 14 25 20 0 5 9 10 20 10 23 0 27
15 5 24 -8 3 -15 11 -15 18 0 9 3 9 10 -2 5 -8 12 -11 15 -8 10 10 -4 28 -21
28 -8 0 -14 -8 -15 -17 0 -11 -3 -13 -6 -5 -2 6 -16 12 -29 12 -13 0 -24 5
-24 10 0 6 -4 10 -10 10 -5 0 -10 -3 -10 -7z"/>
<path d="M5890 171 c0 -6 5 -13 10 -16 6 -3 10 1 10 9 0 9 -4 16 -10 16 -5 0
-10 -4 -10 -9z"/>
<path d="M7714 127 c-17 -12 -37 -34 -43 -49 -9 -19 -19 -27 -34 -25 -14 1
-22 -4 -22 -13 0 -11 11 -15 41 -15 22 0 49 -6 58 -14 15 -12 23 -11 65 9 27
12 54 20 59 16 18 -11 22 9 9 43 -9 24 -21 34 -49 43 -21 6 -38 15 -38 20 0
12 -12 8 -46 -15z"/>
<path d="M7431 14 c0 -11 3 -14 6 -6 3 7 2 16 -1 19 -3 4 -6 -2 -5 -13z"/>
</g>
</svg>
