<?xml version="1.0" standalone="no"?>
<!DOCTYPE svg PUBLIC "-//W3C//DTD SVG 20010904//EN"
 "http://www.w3.org/TR/2001/REC-SVG-20010904/DTD/svg10.dtd">
<svg version="1.0" xmlns="http://www.w3.org/2000/svg"
 width="185.000000pt" height="185.000000pt" viewBox="0 0 185.000000 185.000000"
 preserveAspectRatio="xMidYMid meet">

<g transform="translate(0.000000,185.000000) scale(0.100000,-0.100000)"
fill="#000000" stroke="none">
<path d="M0 925 l0 -925 925 0 925 0 0 60 c0 48 -4 64 -20 77 -15 13 -17 19
-7 26 8 6 6 7 -7 3 -12 -4 -27 2 -44 19 -27 27 -19 33 12 10 11 -8 28 -15 37
-15 10 0 20 -8 22 -17 3 -10 5 366 6 835 l1 852 -925 0 -925 0 0 -925z m907
629 c26 -4 53 -13 61 -20 8 -8 21 -47 29 -86 8 -39 21 -77 29 -85 22 -23 16
-36 -27 -63 -32 -20 -39 -29 -35 -46 4 -16 1 -21 -12 -20 -14 1 -18 -12 -24
-84 -3 -47 -6 -113 -7 -148 -1 -58 1 -63 24 -72 14 -5 26 -15 26 -22 3 -26 -3
-43 -16 -53 -21 -17 -23 -51 -2 -47 21 4 23 -25 2 -55 -14 -20 -13 -21 20 -27
19 -4 37 -11 40 -15 9 -16 -53 -127 -77 -138 -22 -10 -22 -11 -3 -18 64 -22
65 -23 65 -68 0 -23 7 -52 15 -64 18 -26 9 -80 -16 -96 -42 -27 -123 36 -200
156 -32 49 -39 69 -39 110 0 32 -7 58 -19 75 -10 15 -28 46 -39 69 -12 22 -45
65 -75 95 -62 62 -87 110 -87 167 0 47 33 92 53 72 26 -26 30 -8 24 107 -6
104 -4 127 17 211 26 99 50 135 110 166 31 15 38 15 163 -1z m191 -292 c16
-11 5 -42 -15 -42 -8 0 -12 -4 -9 -8 3 -5 7 -20 10 -35 4 -21 1 -27 -13 -27
-26 0 -31 9 -21 36 7 18 6 22 -5 18 -8 -3 -17 -15 -21 -27 -6 -18 -8 -17 -20
12 -19 45 -19 44 24 63 43 20 52 21 70 10z m419 -254 c-3 -8 -6 -5 -6 6 -1 11
2 17 5 13 3 -3 4 -12 1 -19z m-31 -44 c-4 -9 -9 -15 -11 -12 -3 3 -3 13 1 22
4 9 9 15 11 12 3 -3 3 -13 -1 -22z m0 -56 c-18 -26 -22 -17 -5 14 6 11 13 17
16 15 3 -3 -2 -16 -11 -29z m-37 -10 c-13 -25 -28 -38 -44 -38 -5 1 -1 8 10
18 12 9 24 26 28 36 4 10 10 16 13 13 3 -3 0 -16 -7 -29z m-74 -38 c3 -5 -1
-10 -10 -10 -9 0 -13 5 -10 10 3 6 8 10 10 10 2 0 7 -4 10 -10z m45 -20 c0 -5
-12 -10 -27 -9 l-28 1 25 8 c14 4 26 8 28 9 1 1 2 -3 2 -9z m-60 -10 c0 -5 10
-11 23 -11 l22 -2 -22 -4 c-13 -2 -23 -10 -23 -16 0 -7 -4 -6 -10 3 -8 12 -10
9 -10 -12 0 -15 5 -30 10 -33 16 -10 12 -28 -5 -21 -12 4 -14 -4 -12 -42 l2
-47 93 3 92 4 0 -41 0 -41 40 0 40 0 0 -80 0 -80 40 0 41 0 -4 -67 c-2 -38 0
-78 5 -91 l8 -23 -49 27 c-28 14 -52 33 -55 41 -3 8 8 4 27 -10 17 -13 39 -28
47 -32 13 -8 13 -7 1 8 -9 11 -10 17 -2 17 6 0 11 5 11 11 0 7 -9 9 -22 6 -25
-6 -62 15 -50 29 4 5 -3 0 -15 -10 -20 -17 -23 -17 -29 -2 -3 9 -12 16 -20 16
-8 0 -14 5 -14 10 0 6 -6 10 -14 10 -14 0 -66 44 -66 56 0 3 6 1 14 -5 7 -6
22 -9 32 -5 14 4 16 4 5 -4 -11 -8 -9 -12 10 -23 21 -11 22 -10 12 3 -8 9 -9
18 -3 24 6 6 0 10 -18 12 -42 3 -72 23 -72 48 0 13 -4 25 -9 28 -14 9 -6 -51
10 -71 13 -17 13 -17 -11 -2 -27 17 -51 75 -53 126 0 18 -3 30 -6 28 -11 -12
-31 62 -31 116 0 68 18 159 31 159 5 0 9 -4 9 -10z m-3 -167 c-3 -10 -5 -2 -5
17 0 19 2 27 5 18 2 -10 2 -26 0 -35z m418 -432 c-12 -12 -17 -12 -27 -3 -19
19 -30 14 -18 -9 11 -19 10 -20 -9 -9 -39 21 -26 38 29 36 35 -1 38 -2 25 -15z
m55 12 c-1 -14 -27 -43 -33 -37 -7 7 14 44 25 44 5 0 8 -3 8 -7z"/>
<path d="M703 1258 c-41 -20 -24 -27 55 -21 84 6 94 9 72 23 -20 13 -100 11
-127 -2z"/>
<path d="M657 1243 c-4 -3 -7 -11 -7 -17 0 -6 5 -5 12 2 6 6 9 14 7 17 -3 3
-9 2 -12 -2z"/>
<path d="M755 1180 c-22 -10 -32 -19 -23 -19 11 -1 15 -6 12 -16 -7 -16 13
-19 54 -9 24 7 30 35 9 52 -9 8 -24 5 -52 -8z"/>
<path d="M558 1016 c-4 -22 -4 -46 1 -54 13 -22 17 -2 11 48 l-5 45 -7 -39z"/>
<path d="M858 938 c9 -9 15 -9 24 0 9 9 7 12 -12 12 -19 0 -21 -3 -12 -12z"/>
<path d="M828 793 c7 -3 16 -2 19 1 4 3 -2 6 -13 5 -11 0 -14 -3 -6 -6z"/>
<path d="M1351 594 c0 -11 3 -14 6 -6 3 7 2 16 -1 19 -3 4 -6 -2 -5 -13z"/>
<path d="M1423 555 c-3 -9 -3 -18 -1 -21 3 -3 8 4 11 16 6 23 -1 27 -10 5z"/>
<path d="M1427 505 c-4 -8 -2 -17 3 -20 6 -4 10 3 10 14 0 25 -6 27 -13 6z"/>
<path d="M1380 461 c0 -6 5 -13 10 -16 6 -3 10 1 10 9 0 9 -4 16 -10 16 -5 0
-10 -4 -10 -9z"/>
<path d="M1630 320 c8 -5 20 -10 25 -10 6 0 3 5 -5 10 -8 5 -19 10 -25 10 -5
0 -3 -5 5 -10z"/>
</g>
</svg>
