<?xml version="1.0" standalone="no"?>
<!DOCTYPE svg PUBLIC "-//W3C//DTD SVG 20010904//EN"
 "http://www.w3.org/TR/2001/REC-SVG-20010904/DTD/svg10.dtd">
<svg version="1.0" xmlns="http://www.w3.org/2000/svg"
 width="202.000000pt" height="202.000000pt" viewBox="0 0 202.000000 202.000000"
 preserveAspectRatio="xMidYMid meet">

<g transform="translate(0.000000,202.000000) scale(0.100000,-0.100000)"
fill="#000000" stroke="none">
<path d="M260 2014 c0 -9 42 -68 55 -76 5 -4 7 -8 3 -8 -6 0 52 -104 72 -127
5 -7 10 -18 10 -25 0 -7 7 -22 15 -32 8 -11 13 -28 10 -37 -3 -10 -1 -20 5
-24 17 -10 12 -48 -5 -41 -9 3 -15 0 -15 -9 0 -8 -7 -15 -17 -15 -14 0 -14 -2
-1 -17 8 -10 20 -33 28 -50 7 -18 17 -33 22 -33 12 0 0 54 -13 58 -12 5 -12
32 1 32 6 0 10 -5 10 -10 0 -6 14 -24 30 -42 17 -17 30 -35 30 -39 0 -5 5 -9
10 -9 17 0 11 41 -12 79 -14 24 -16 31 -5 21 9 -8 27 -37 41 -64 l25 -49 -46
-53 c-49 -58 -68 -115 -58 -175 5 -31 10 -35 29 -32 13 3 28 -2 35 -11 15 -18
1 -22 -17 -4 -21 21 -42 -10 -41 -61 1 -25 4 -37 6 -26 3 11 10 31 15 44 8 23
9 23 23 5 14 -18 16 -18 26 -1 21 35 37 19 44 -44 4 -33 8 -59 10 -57 2 2 5
21 9 43 3 22 15 73 25 114 17 62 27 81 60 110 21 20 42 49 46 64 26 121 249
124 362 5 17 -18 46 -62 63 -98 26 -56 30 -72 24 -114 -7 -52 9 -59 19 -9 20
94 23 123 14 144 -4 13 -6 41 -2 63 5 32 1 44 -21 73 -15 19 -40 40 -56 45
-21 8 -26 14 -19 21 16 16 13 27 -6 28 -12 0 -13 2 -5 6 10 4 10 8 1 19 -8 10
-8 14 0 14 6 0 18 -12 28 -26 l17 -26 8 23 c6 15 5 25 -1 27 -6 2 -11 23 -11
47 0 24 -5 47 -11 51 -7 4 -10 -9 -7 -41 l3 -48 -47 -1 c-25 -1 -44 2 -42 5 2
4 -14 14 -36 23 -48 19 -145 22 -134 4 5 -7 3 -8 -6 -3 -20 12 -68 16 -75 5
-3 -5 -12 -7 -19 -4 -7 3 -21 -3 -30 -12 -14 -14 -15 -19 -4 -26 10 -7 9 -11
-6 -23 -11 -8 -27 -15 -36 -15 -8 0 -21 -9 -28 -20 -16 -26 -42 -26 -42 0 0
10 -6 23 -13 27 -14 8 -77 97 -77 108 0 3 -35 58 -78 123 -43 64 -92 138 -108
164 -23 37 -35 47 -56 48 -16 0 -28 -3 -28 -6z m807 -420 c-3 -3 -12 -4 -19
-1 -8 3 -5 6 6 6 11 1 17 -2 13 -5z m-487 -39 c7 -9 8 -15 2 -15 -5 0 -12 7
-16 15 -3 8 -4 15 -2 15 2 0 9 -7 16 -15z m0 -29 c0 -3 -4 -8 -10 -11 -5 -3
-10 -1 -10 4 0 6 5 11 10 11 6 0 10 -2 10 -4z m617 -208 c-3 -8 -6 -5 -6 6 -1
11 2 17 5 13 3 -3 4 -12 1 -19z"/>
<path d="M370 1997 c0 -27 17 -47 41 -47 19 0 33 -37 16 -43 -12 -4 51 -97 66
-97 5 0 7 11 5 24 -6 29 22 48 60 41 22 -5 24 -4 10 5 -24 15 -23 57 2 70 11
6 49 13 85 17 35 3 62 9 60 13 -5 8 -98 5 -112 -3 -4 -3 -28 -7 -53 -8 -43 -4
-45 -3 -45 24 1 21 -4 27 -20 27 -11 0 -28 -7 -39 -15 -16 -12 -21 -12 -40 0
-28 21 -36 19 -36 -8z m170 -100 c0 -16 -35 -1 -38 16 -3 16 -1 17 17 5 12 -7
21 -17 21 -21z"/>
<path d="M1066 2007 c6 -17 -15 -27 -75 -33 -64 -6 -64 -14 -1 -14 66 0 92
-19 83 -61 -4 -22 -2 -29 11 -29 12 0 16 -9 16 -35 0 -24 -5 -35 -15 -35 -23
0 -18 -30 9 -55 l24 -23 6 22 c3 12 1 51 -5 86 -6 36 -9 80 -8 100 2 22 -1 34
-8 33 -7 -2 -11 9 -10 24 1 19 -3 28 -15 31 -12 2 -16 -1 -12 -11z"/>
<path d="M1750 2003 c-14 -9 -45 -34 -69 -55 -24 -21 -52 -38 -63 -38 -11 0
-17 -4 -14 -9 4 -5 -13 -25 -36 -45 -24 -20 -37 -36 -30 -36 7 0 41 23 75 50
34 28 70 50 79 50 10 0 18 6 18 12 0 7 19 29 43 50 43 38 41 51 -3 21z"/>
<path d="M1944 1993 c4 -16 8 -35 9 -43 2 -9 7 -21 11 -28 11 -19 13 -151 2
-144 -5 3 -6 -3 -2 -13 4 -11 0 -25 -11 -37 -12 -14 -14 -21 -5 -30 8 -8 14
-4 22 18 l11 29 19 -25 c20 -25 20 -25 20 131 0 170 0 169 -57 169 -23 0 -25
-3 -19 -27z"/>
<path d="M0 1960 l0 -26 75 7 c77 8 133 -1 146 -22 4 -7 21 -14 39 -16 l32 -3
-21 32 c-20 32 -22 33 -113 40 -51 4 -108 9 -125 11 -30 2 -33 0 -33 -23z"/>
<path d="M1894 1965 c4 -16 12 -34 17 -40 7 -7 8 0 3 20 -3 17 -11 35 -17 40
-6 7 -7 0 -3 -20z"/>
<path d="M908 1973 c7 -3 16 -2 19 1 4 3 -2 6 -13 5 -11 0 -14 -3 -6 -6z"/>
<path d="M1490 1921 c0 -5 5 -13 10 -16 6 -3 10 -2 10 4 0 5 -4 13 -10 16 -5
3 -10 2 -10 -4z"/>
<path d="M1500 1795 c-11 -13 -10 -14 4 -9 9 3 16 10 16 15 0 13 -6 11 -20 -6z"/>
<path d="M1430 1756 c0 -8 -33 -42 -72 -77 -93 -79 -103 -100 -12 -25 71 59
96 67 114 39 10 -16 10 -16 6 2 -3 11 1 32 9 48 14 27 13 27 -16 27 -18 0 -29
-5 -29 -14z"/>
<path d="M1500 1766 c0 -2 7 -9 15 -16 12 -10 15 -10 15 4 0 9 -7 16 -15 16
-8 0 -15 -2 -15 -4z"/>
<path d="M1 1660 c1 -65 1 -65 15 -32 13 29 19 32 57 33 l42 1 -48 16 c-26 10
-52 24 -57 32 -7 10 -9 -6 -9 -50z"/>
<path d="M1890 1679 c0 -5 5 -7 10 -4 6 3 10 8 10 11 0 2 -4 4 -10 4 -5 0 -10
-5 -10 -11z"/>
<path d="M1986 1665 c4 -8 12 -15 20 -15 19 0 18 16 -2 24 -22 9 -24 8 -18 -9z"/>
<path d="M620 1615 c0 -8 4 -15 9 -15 5 0 14 7 21 15 10 13 9 15 -9 15 -12 0
-21 -6 -21 -15z"/>
<path d="M1758 1579 c-29 -28 -30 -29 -4 -10 16 12 35 21 42 21 8 0 14 5 14
10 0 18 -19 10 -52 -21z"/>
<path d="M1216 1578 c4 -6 -5 -21 -22 -36 -16 -13 -20 -19 -9 -13 11 6 34 22
50 36 l30 25 -28 0 c-19 0 -26 -4 -21 -12z"/>
<path d="M55 1561 c-16 -3 -25 -9 -20 -13 6 -3 24 0 40 7 33 15 27 16 -20 6z"/>
<path d="M1487 1547 c-46 -11 -44 -32 4 -32 29 0 34 -4 39 -30 9 -43 2 -55
-31 -55 -39 0 -28 -22 19 -37 32 -10 39 -10 50 5 7 9 18 16 23 15 5 -2 9 2 9
8 0 7 -10 9 -25 5 -24 -6 -25 -5 -25 41 -1 27 -6 57 -13 69 -10 18 -17 19 -50
11z"/>
<path d="M1997 1522 c-16 -17 -25 -53 -10 -39 3 4 12 2 20 -4 10 -9 13 -4 13
25 0 41 -1 42 -23 18z"/>
<path d="M1277 1439 c7 -7 15 -10 18 -7 3 3 -2 9 -12 12 -14 6 -15 5 -6 -5z"/>
<path d="M50 1420 c-8 -5 -23 -7 -32 -4 -14 4 -18 0 -18 -20 0 -26 18 -34 36
-16 5 5 54 11 107 12 59 2 96 7 94 13 -2 6 -33 9 -75 6 -48 -2 -72 1 -72 8 0
13 -20 14 -40 1z"/>
<path d="M2001 1421 c-8 -5 -20 -7 -28 -4 -7 3 -13 0 -13 -6 0 -6 9 -11 19
-11 11 0 21 -6 24 -12 7 -20 19 -2 15 21 -2 15 -7 18 -17 12z"/>
<path d="M1895 1410 c-3 -5 -2 -10 4 -10 5 0 13 5 16 10 3 6 2 10 -4 10 -5 0
-13 -4 -16 -10z"/>
<path d="M363 1393 c9 -2 23 -2 30 0 6 3 -1 5 -18 5 -16 0 -22 -2 -12 -5z"/>
<path d="M1789 1392 c-12 -5 -14 -13 -8 -27 4 -11 8 -14 8 -7 1 7 6 10 11 7 6
-3 10 -2 10 3 0 6 7 9 16 8 9 0 19 5 21 12 5 13 -30 16 -58 4z"/>
<path d="M418 1378 c9 -9 15 -9 24 0 9 9 7 12 -12 12 -19 0 -21 -3 -12 -12z"/>
<path d="M770 1346 c-19 -6 -36 -17 -38 -25 -4 -11 5 -12 41 -7 47 7 117 -13
117 -33 0 -6 -13 -5 -32 3 -34 15 -72 9 -110 -18 -22 -16 -22 -16 14 -16 20 0
40 5 44 11 5 8 10 6 16 -5 5 -9 17 -16 26 -16 9 0 24 -5 32 -10 11 -7 1 -9
-33 -6 -28 3 -45 1 -42 -5 4 -5 27 -9 52 -9 39 0 50 5 74 33 16 17 29 36 29
40 0 13 -48 57 -62 57 -7 1 -32 4 -54 9 -25 5 -54 4 -74 -3z"/>
<path d="M1007 1276 c-3 -8 -2 -18 4 -21 6 -4 6 -13 0 -23 -14 -24 7 -60 43
-71 28 -10 29 -9 12 4 -10 8 -24 16 -30 19 -7 3 -6 8 4 15 11 8 16 7 18 -4 2
-8 11 -15 21 -15 9 0 22 -5 29 -12 17 -17 24 -5 13 24 -9 25 -52 45 -70 33 -5
-3 -11 1 -14 9 -4 10 6 13 44 12 48 -2 49 -2 31 17 -26 26 -97 35 -105 13z"/>
<path d="M1 1254 c0 -11 3 -14 6 -6 3 7 2 16 -1 19 -3 4 -6 -2 -5 -13z"/>
<path d="M1496 1256 c3 -9 11 -16 16 -16 13 0 5 23 -10 28 -7 2 -10 -2 -6 -12z"/>
<path d="M1650 1236 c0 -2 11 -6 25 -8 14 -3 25 -1 25 3 0 5 -11 9 -25 9 -14
0 -25 -2 -25 -4z"/>
<path d="M1571 1214 c0 -11 3 -14 6 -6 3 7 2 16 -1 19 -3 4 -6 -2 -5 -13z"/>
<path d="M535 1170 c-4 -12 -15 -20 -29 -20 -19 0 -23 -5 -22 -32 1 -17 7 -33
14 -36 7 -2 11 2 10 9 -2 7 6 15 17 17 17 4 18 2 6 -12 -11 -13 -11 -16 1 -16
12 0 15 13 15 55 0 60 -2 66 -12 35z"/>
<path d="M1190 1136 c0 -22 3 -27 11 -19 8 8 8 16 0 30 -9 16 -10 14 -11 -11z"/>
<path d="M117 1123 c-13 -13 -32 -18 -68 -16 l-50 1 3 -56 3 -57 63 3 c80 5
112 -3 112 -26 0 -17 -5 -17 -72 -6 -120 21 -108 37 -108 -150 0 -122 3 -166
13 -169 10 -4 10 -6 0 -6 -10 -1 -13 -72 -13 -321 l0 -320 674 0 c605 0 674 2
680 16 13 35 2 99 -15 88 -5 -3 -9 -13 -9 -23 0 -10 -6 -24 -14 -30 -11 -9
-15 -8 -20 5 -4 10 -3 20 3 23 5 3 16 24 25 45 l17 40 23 -35 c12 -19 35 -55
50 -81 18 -31 35 -48 47 -48 23 0 24 9 5 36 -34 48 -163 310 -159 322 3 7 -2
24 -11 37 -9 14 -14 25 -11 25 3 0 -6 18 -20 40 -14 22 -25 44 -25 50 0 5 -4
10 -9 10 -5 0 -12 9 -16 19 -8 28 -65 104 -72 97 -7 -7 27 -86 37 -86 4 0 10
-9 13 -20 7 -28 -8 -25 -21 5 -6 14 -18 25 -27 25 -8 0 -14 3 -13 8 0 4 -4 18
-10 32 l-11 25 0 -25 c-1 -14 8 -38 19 -55 11 -16 20 -37 20 -45 0 -13 -1 -13
-10 0 -17 27 -23 1 -24 -99 -1 -54 -4 -94 -9 -87 -4 6 -6 65 -6 132 2 114 1
123 -25 166 -16 27 -24 52 -20 63 5 13 9 14 15 3 5 -7 6 -20 4 -29 -3 -8 1
-24 10 -35 28 -37 9 43 -24 101 -35 63 -36 66 -16 59 8 -4 15 -1 15 5 0 16
-15 14 -57 -9 -21 -11 -43 -20 -49 -20 -6 0 -18 -8 -28 -18 -15 -18 -13 -22
36 -85 37 -45 65 -71 93 -81 22 -9 30 -14 18 -12 -18 3 -21 1 -15 -11 10 -17
-8 -93 -21 -93 -5 0 -6 8 -2 17 8 21 8 22 6 45 -1 20 -76 109 -85 101 -3 -4
-6 -2 -6 4 0 5 -9 20 -20 33 -11 12 -17 27 -14 31 3 5 1 9 -4 9 -6 0 -25 -35
-42 -78 -18 -42 -43 -87 -57 -100 -13 -12 -21 -22 -16 -22 4 0 -11 -18 -32
-40 -35 -36 -44 -40 -87 -40 -27 0 -64 6 -83 14 -41 17 -125 93 -125 113 0 8
4 12 9 9 13 -8 19 32 22 149 7 270 1 344 -28 368 -13 10 -23 24 -23 32 0 10
-7 10 -40 -1 -31 -11 -60 -12 -127 -5 -99 11 -119 16 -127 37 -7 19 -18 18
-39 -3z m33 -43 c0 -5 -4 -10 -10 -10 -5 0 -10 5 -10 10 0 6 5 10 10 10 6 0
10 -4 10 -10z m-110 -30 c0 -5 -2 -10 -4 -10 -3 0 -8 5 -11 10 -3 6 -1 10 4
10 6 0 11 -4 11 -10z m120 -10 c0 -5 -9 -10 -20 -10 -11 0 -20 5 -20 10 0 6 9
10 20 10 11 0 20 -4 20 -10z m80 -342 c0 -4 -17 -12 -37 -17 -48 -14 -50 -14
-50 2 0 6 -13 50 -28 96 l-28 83 29 23 28 22 43 -101 c24 -55 43 -104 43 -108z
m813 -12 c-4 -5 -11 2 -16 17 -5 15 -12 25 -15 23 -4 -2 -8 8 -9 22 -1 24 1
23 22 -13 13 -21 21 -43 18 -49z m-943 -26 c-8 -5 -26 -9 -40 -9 -23 1 -23 2
5 9 43 11 52 11 35 0z m228 -145 c-3 -3 -9 2 -12 12 -6 14 -5 15 5 6 7 -7 10
-15 7 -18z m822 -62 c0 -8 5 -11 10 -8 6 3 10 -1 10 -10 0 -9 -5 -13 -10 -10
-6 4 -10 3 -9 -2 1 -4 -2 -19 -8 -33 -6 -14 -12 -32 -15 -40 -2 -8 -4 15 -4
51 1 45 5 66 14 66 6 0 12 -7 12 -14z m-842 -155 c0 -68 -3 -111 -5 -95 -2 15
-9 25 -14 22 -13 -8 -11 -49 2 -62 8 -8 9 -20 1 -43 -6 -17 -9 -37 -6 -44 3
-8 1 -17 -5 -21 -6 -3 -12 0 -12 7 -1 7 -3 27 -5 43 -2 17 0 83 3 147 4 94 8
116 19 111 8 -3 14 0 14 6 0 6 -4 11 -10 11 -5 0 -10 7 -10 15 0 8 5 15 11 15
5 0 7 5 3 12 -4 6 -3 8 3 5 7 -4 11 -54 11 -129z m882 114 c0 -5 -7 -17 -15
-28 -14 -18 -14 -17 -4 9 12 27 19 34 19 19z m-183 -34 c-3 -8 -6 -5 -6 6 -1
11 2 17 5 13 3 -3 4 -12 1 -19z m203 -19 c0 -24 -4 -38 -10 -34 -5 3 -10 0
-10 -7 0 -8 -7 -23 -16 -34 -15 -18 -15 -18 -9 6 4 14 8 34 10 46 3 19 26 64
32 64 2 0 3 -18 3 -41z m-683 -14 c8 -9 13 -18 11 -21 -3 -2 -13 5 -23 16 -21
23 -11 27 12 5z m118 -13 c-3 -3 -11 0 -18 7 -9 10 -8 11 6 5 10 -3 15 -9 12
-12z m45 -24 c0 -13 -23 -5 -28 10 -2 7 2 10 12 6 9 -3 16 -11 16 -16z m370
-39 c-17 -41 -22 -31 -8 17 6 21 13 33 15 26 3 -7 -1 -26 -7 -43z m-101 -9 c4
0 5 -16 3 -35 -7 -56 -24 -36 -27 30 -2 48 0 55 7 33 5 -16 13 -28 17 -28z"/>
<path d="M830 1130 c-12 -8 -12 -12 -2 -18 7 -5 10 -17 6 -28 -3 -11 -2 -14 3
-8 9 12 53 1 53 -13 0 -4 27 -8 60 -8 44 0 60 4 60 13 0 8 -9 16 -20 19 -11 3
-20 9 -20 13 0 12 -44 18 -67 9 -11 -4 -26 -3 -34 2 -12 8 -12 10 1 19 12 8
12 10 -5 10 -11 0 -27 -5 -35 -10z"/>
<path d="M768 1083 c-21 -14 -38 -31 -38 -38 0 -16 38 -53 89 -88 23 -16 39
-32 36 -37 -7 -11 40 -40 65 -40 11 0 20 7 20 15 0 8 -7 15 -14 15 -19 0 -66
43 -66 61 0 10 -3 10 -8 3 -5 -9 -11 -8 -20 2 -10 11 -10 14 0 15 73 6 148
-21 148 -53 0 -17 5 -20 30 -16 22 3 30 1 30 -11 1 -27 50 41 50 69 0 31 -53
113 -58 89 -1 -9 1 -34 6 -57 12 -50 0 -58 -43 -28 -16 12 -32 24 -35 27 -13
14 -49 22 -94 20 -31 -2 -46 1 -42 7 3 6 0 12 -6 15 -10 3 -10 9 -1 25 11 18
8 33 -6 31 -3 0 -23 -12 -43 -26z"/>
<path d="M1160 1075 c0 -18 5 -25 20 -25 11 0 20 7 20 15 0 8 -9 19 -20 25
-18 9 -20 8 -20 -15z"/>
<path d="M1559 1060 c-15 -22 -19 -23 -43 -12 -31 14 -106 16 -106 3 0 -9 71
-21 121 -21 16 0 32 -7 38 -17 14 -26 20 -13 12 31 l-6 40 -16 -24z"/>
<path d="M535 1054 c-13 -10 -19 -24 -17 -42 6 -43 22 -51 23 -11 1 21 3 26 6
14 10 -42 23 -38 23 8 0 51 -4 54 -35 31z"/>
<path d="M1635 1039 c-10 -14 -6 -16 48 -24 55 -8 63 5 14 23 -41 15 -54 15
-62 1z"/>
<path d="M2004 1039 c-3 -6 -25 -20 -48 -30 -40 -18 -40 -19 -11 -19 20 0 35
7 43 20 7 12 17 18 22 15 6 -3 10 1 10 9 0 19 -6 20 -16 5z"/>
<path d="M1197 1028 c-3 -10 -15 -18 -25 -18 -13 0 -23 -12 -32 -42 -8 -24
-22 -60 -33 -82 l-19 -38 30 -47 c16 -25 59 -95 97 -156 37 -60 81 -130 96
-155 l28 -45 341 169 340 169 0 67 0 67 -122 12 c-68 6 -190 18 -273 27 -82 8
-208 20 -280 27 -125 12 -129 13 -135 37 -5 21 -7 22 -13 8z m743 -207 c0 -14
-18 -23 -30 -16 -6 4 -8 11 -5 16 8 12 35 12 35 0z m-522 -113 c3 -14 -4 -18
-32 -18 -36 0 -52 12 -41 31 11 17 69 6 73 -13z m10 -151 c14 -16 3 -33 -28
-45 -29 -11 -70 1 -70 20 0 28 79 48 98 25z"/>
<path d="M606 851 c14 -56 40 -101 59 -101 6 0 22 -9 35 -20 20 -18 21 -21 6
-35 -19 -20 -31 -60 -21 -75 7 -11 -19 -36 -40 -39 -5 -1 -20 -9 -32 -16 -20
-14 -23 -13 -34 6 -8 16 -13 18 -19 9 -5 -8 -16 -9 -30 -5 l-23 7 23 -33 c13
-19 25 -36 26 -38 2 -2 10 4 19 12 14 15 20 14 60 -12 73 -46 130 -21 112 49
-3 11 1 24 9 31 8 6 14 23 14 38 0 29 42 81 66 81 20 0 91 37 100 51 4 7 -5
23 -23 39 -24 22 -44 29 -101 34 -39 4 -74 11 -77 17 -4 5 -10 7 -15 4 -4 -3
-28 6 -52 20 -68 39 -78 35 -62 -24z"/>
<path d="M1107 693 c-4 -6 0 -18 7 -28 8 -11 16 -14 19 -8 4 6 0 18 -7 28 -8
11 -16 14 -19 8z"/>
<path d="M1975 599 c-4 -6 -5 -12 -2 -15 2 -3 7 2 10 11 7 17 1 20 -8 4z"/>
<path d="M1876 468 l-18 -33 21 25 c18 22 26 40 18 40 -1 0 -11 -15 -21 -32z"/>
<path d="M1799 373 c-13 -16 -12 -17 4 -4 16 13 21 21 13 21 -2 0 -10 -8 -17
-17z"/>
<path d="M1720 275 c-7 -9 -8 -15 -2 -15 5 0 12 7 16 15 3 8 4 15 2 15 -2 0
-9 -7 -16 -15z"/>
<path d="M1675 219 c-4 -6 -5 -12 -2 -15 2 -3 7 2 10 11 7 17 1 20 -8 4z"/>
</g>
</svg>
